<svg width="40" height="40" viewBox="0 0 40 40" fill="none" xmlns="http://www.w3.org/2000/svg">
<g opacity="0.4">
<path d="M5 30.0829L9.47052 30.9716L10.3543 26.5254" stroke="#4893C1" stroke-width="2.5" stroke-linecap="round" stroke-linejoin="round"/>
<path d="M9.44236 30.4291C3.93731 24.7328 3.97461 15.6523 9.58181 10.0013C13.0924 6.46319 17.9667 5.09787 22.5297 5.91512" stroke="#4893C1" stroke-width="2.5" stroke-linecap="round" stroke-linejoin="round"/>
<path d="M34.9998 10.604L30.5292 9.71539L29.6455 14.1616" stroke="#4893C1" stroke-width="2.5" stroke-linecap="round" stroke-linejoin="round"/>
<path d="M30.558 10.2623C36.063 15.9587 36.0257 25.0392 30.4185 30.69C26.908 34.2282 22.0337 35.5935 17.4707 34.7764" stroke="#4893C1" stroke-width="2.5" stroke-linecap="round" stroke-linejoin="round"/>
</g>
<path d="M13.9484 20.72L17.312 12.5127C17.3875 12.3069 17.5835 12.1701 17.8027 12.1701H22.3118C22.6725 12.1701 22.9247 12.5268 22.8045 12.8668L20.8103 17.547C20.6902 17.887 20.9425 18.2437 21.3032 18.2437H25.5608C26.01 18.2437 26.2498 18.7728 25.954 19.1107L17.8697 28.3382C17.5053 28.754 16.8292 28.3933 16.9717 27.8592L18.5127 22.0798C18.6012 21.748 18.3512 21.4225 18.0078 21.4225H14.439C14.0758 21.4225 13.8233 21.061 13.9484 20.72Z" stroke="#4893C1" stroke-width="2.5" stroke-linecap="round" stroke-linejoin="round"/>
</svg>
