<svg width="24" height="24" viewBox="0 0 24 24" fill="none" xmlns="http://www.w3.org/2000/svg">
<path fill-rule="evenodd" clip-rule="evenodd" d="M3.41016 9.66602C3.41016 9.2518 3.74594 8.91602 4.16016 8.91602H20.2016C20.6158 8.91602 20.9516 9.2518 20.9516 9.66602C20.9516 10.0802 20.6158 10.416 20.2016 10.416H4.16016C3.74594 10.416 3.41016 10.0802 3.41016 9.66602Z" fill="#D0D0D0"/>
<path fill-rule="evenodd" clip-rule="evenodd" d="M15.8145 2.25C16.2287 2.25 16.5645 2.58579 16.5645 3V5.96174C16.5645 6.37595 16.2287 6.71174 15.8145 6.71174C15.4002 6.71174 15.0645 6.37595 15.0645 5.96174V3C15.0645 2.58579 15.4002 2.25 15.8145 2.25Z" fill="#D0D0D0"/>
<path fill-rule="evenodd" clip-rule="evenodd" d="M8.54297 2.25C8.95718 2.25 9.29297 2.58579 9.29297 3V5.96174C9.29297 6.37595 8.95718 6.71174 8.54297 6.71174C8.12876 6.71174 7.79297 6.37595 7.79297 5.96174V3C7.79297 2.58579 8.12876 2.25 8.54297 2.25Z" fill="#D0D0D0"/>
<path fill-rule="evenodd" clip-rule="evenodd" d="M4.71498 4.95256C5.634 4.07897 6.91309 3.67188 8.36992 3.67188H15.9903C17.4504 3.67188 18.7302 4.07865 19.6479 4.95323C20.5712 5.83327 21.0304 7.094 21.0262 8.60132C21.0262 8.6011 21.0262 8.60154 21.0262 8.60132V16.8137C21.0262 18.3212 20.5649 19.5831 19.6415 20.4646C18.7234 21.341 17.4437 21.7504 15.9825 21.7504H8.36992C6.90859 21.7504 5.62787 21.3322 4.70972 20.4423C3.78785 19.5488 3.32617 18.2716 3.32617 16.7456V8.59984C3.32617 7.09167 3.79016 5.83167 4.71498 4.95256ZM5.74843 6.03976C5.18727 6.57317 4.82617 7.40215 4.82617 8.59984V16.7456C4.82617 17.9683 5.18958 18.8185 5.75368 19.3652C6.32151 19.9156 7.18767 20.2504 8.36992 20.2504H15.9825C17.1726 20.2504 18.0398 19.9198 18.6057 19.3796C19.1663 18.8445 19.5262 18.013 19.5262 16.8137V8.59984V8.59768C19.5297 7.39945 19.1716 6.57144 18.613 6.03908C18.0486 5.50115 17.1815 5.17187 15.9903 5.17187H8.36992C7.18317 5.17187 6.31539 5.50083 5.74843 6.03976Z" fill="#D0D0D0"/>
<path fill-rule="evenodd" clip-rule="evenodd" d="M11.4316 13.376C11.4316 12.9618 11.7674 12.626 12.1816 12.626C12.5959 12.626 12.9322 12.9618 12.9322 13.376C12.9322 13.7902 12.5965 14.126 12.1822 14.126C11.768 14.126 11.4316 13.7902 11.4316 13.376Z" fill="#D0D0D0"/>
<path fill-rule="evenodd" clip-rule="evenodd" d="M11.4316 16.8525C11.4316 16.4383 11.7674 16.1025 12.1816 16.1025C12.5959 16.1025 12.9322 16.4383 12.9322 16.8525C12.9322 17.2668 12.5965 17.6025 12.1822 17.6025C11.768 17.6025 11.4316 17.2668 11.4316 16.8525Z" fill="#D0D0D0"/>
<path fill-rule="evenodd" clip-rule="evenodd" d="M7.41016 13.376C7.41016 12.9618 7.74595 12.626 8.16016 12.626C8.57438 12.626 8.91084 12.9618 8.91084 13.376C8.91084 13.7902 8.57506 14.126 8.16084 14.126C7.74663 14.126 7.41016 13.7902 7.41016 13.376Z" fill="#D0D0D0"/>
<path fill-rule="evenodd" clip-rule="evenodd" d="M7.41016 16.8525C7.41016 16.4383 7.74595 16.1025 8.16016 16.1025C8.57438 16.1025 8.91084 16.4383 8.91084 16.8525C8.91084 17.2668 8.57506 17.6025 8.16084 17.6025C7.74663 17.6025 7.41016 17.2668 7.41016 16.8525Z" fill="#D0D0D0"/>
<path fill-rule="evenodd" clip-rule="evenodd" d="M15.4395 13.376C15.4395 12.9618 15.7753 12.626 16.1895 12.626C16.6037 12.626 16.9402 12.9618 16.9402 13.376C16.9402 13.7902 16.6044 14.126 16.1902 14.126C15.776 14.126 15.4395 13.7902 15.4395 13.376Z" fill="#D0D0D0"/>
</svg>
