<svg width="40" height="40" viewBox="0 0 40 40" fill="none" xmlns="http://www.w3.org/2000/svg">
<g clip-path="url(#clip0_558_33310)">
<path opacity="0.4" d="M17.1481 4.99054H13.2526C8.54966 4.99054 5.59961 8.32044 5.59961 13.0327V25.7484C5.59961 30.4607 8.53564 33.7906 13.2526 33.7906H26.7465C31.4651 33.7906 34.3996 30.4607 34.3996 25.7484V22.6327" stroke="#4893C1" stroke-width="2.4" stroke-linecap="round" stroke-linejoin="round"/>
<path d="M12.915 27.5849L17.1182 23.1276L23.2235 27.1722L27.3444 23.1274" stroke="#4893C1" stroke-width="2.4" stroke-linecap="round" stroke-linejoin="round"/>
<path d="M16.2762 17.3485V13.374M11.4736 17.3485V11.0358" stroke="#4893C1" stroke-width="2.4" stroke-linecap="round" stroke-linejoin="round"/>
<path fill-rule="evenodd" clip-rule="evenodd" d="M26.3716 7.34024C25.4601 7.34024 24.7217 8.07857 24.7217 8.98926C24.7217 9.89995 25.4601 10.6383 26.3716 10.6383H29.1493C30.9236 10.6383 32.3607 12.077 32.3607 13.8507C32.3607 15.6246 30.9232 17.0621 29.1493 17.0621H24.6353C24.2038 17.0621 23.854 16.7124 23.854 16.2809C23.854 15.8494 24.2038 15.4996 24.6353 15.4996H29.1493C30.0603 15.4996 30.7982 14.7617 30.7982 13.8507C30.7982 12.9392 30.0599 12.2008 29.1493 12.2008H26.3716C24.5979 12.2008 23.1592 10.7636 23.1592 8.98926C23.1592 7.21491 24.5979 5.77774 26.3716 5.77774H30.8855C31.317 5.77774 31.6668 6.12752 31.6668 6.55899C31.6668 6.99047 31.317 7.34024 30.8855 7.34024H26.3716Z" fill="#4893C1"/>
<path fill-rule="evenodd" clip-rule="evenodd" d="M27.7627 3.34641C28.1942 3.34641 28.5439 3.69619 28.5439 4.12766V18.711C28.5439 19.1424 28.1942 19.4922 27.7627 19.4922C27.3311 19.4922 26.9814 19.1424 26.9814 18.711V4.12766C26.9814 3.69619 27.3311 3.34641 27.7627 3.34641Z" fill="#4893C1"/>
</g>
<defs>
<clipPath id="clip0_558_33310">
<rect width="40" height="40" fill="white"/>
</clipPath>
</defs>
</svg>
