<svg width="25" height="21" viewBox="0 0 25 21" fill="none" xmlns="http://www.w3.org/2000/svg">
<path d="M0.88273 0.0507723H19.4953C19.7051 0.0507723 19.8729 0.217338 19.8729 0.428411V10.5167C19.7483 10.5065 19.625 10.5001 19.4953 10.5001C19.3656 10.5001 19.2422 10.5052 19.1125 10.5167V0.811141H1.26037V17.0078H15.2738C15.3921 17.2774 15.5383 17.5304 15.7049 17.7682H0.88273C0.672928 17.7682 0.5 17.6016 0.5 17.3905V0.427138C0.5 0.217337 0.672928 0.0494995 0.88273 0.0494995V0.0507723Z" fill="#4893C1"/>
<path fill-rule="evenodd" clip-rule="evenodd" d="M2.56445 2.04578H17.8075V10.818C17.1018 11.0977 16.4762 11.5453 15.9905 12.1124V3.87423C15.9905 3.77251 15.904 3.68604 15.7959 3.68604H11.1752C11.0671 3.68604 10.987 3.77251 10.987 3.87423V13.9409C10.987 14.049 11.0684 14.1354 11.1752 14.1354H14.977C14.9071 14.4533 14.8741 14.7826 14.8741 15.1272C14.8741 15.3434 14.8842 15.5583 14.9173 15.7744H2.56445V2.04705V2.04578ZM4.57601 3.68477H9.2018C9.30479 3.68477 9.39125 3.77123 9.39125 3.87295V13.9396C9.39125 14.0477 9.30479 14.1341 9.2018 14.1341H4.57601C4.47302 14.1341 4.38783 14.0477 4.38783 13.9396V3.87295C4.38783 3.77123 4.47429 3.68477 4.57601 3.68477Z" fill="#4893C1"/>
<path d="M2.56514 1.66815H17.8081C18.0179 1.66815 18.1909 1.83473 18.1909 2.0458V10.6896C17.9264 10.7646 17.6734 10.8676 17.4305 10.991V2.42853H2.94787V15.3904H14.8799C14.8964 15.6498 14.9282 15.9029 14.9879 16.1508H2.56514C2.35534 16.1508 2.1875 15.983 2.1875 15.7732V2.0458C2.1875 1.836 2.35534 1.66815 2.56514 1.66815Z" fill="#4893C1"/>
<path d="M8.1618 7.67478V11.3088C8.1618 11.5186 7.99524 11.6915 7.78416 11.6915H5.99385C5.78405 11.6915 5.61621 11.5186 5.61621 11.3088V7.67478C5.61621 7.46497 5.78278 7.29205 5.99385 7.29205H7.78416C7.99397 7.29205 8.1618 7.46497 8.1618 7.67478ZM7.40143 10.9312V8.05242H6.37658V10.9312H7.40143Z" fill="#4893C1"/>
<path d="M5.50871 6.1261H8.26918C8.47898 6.1261 8.65191 6.29903 8.65191 6.50883V7.67355C8.65191 7.88335 8.47898 8.05119 8.26918 8.05119H5.50871C5.2989 8.05119 5.12598 7.88462 5.12598 7.67355V6.50883C5.12598 6.29903 5.2989 6.1261 5.50871 6.1261ZM7.89281 6.88647H5.88762V7.29082H7.89281V6.88647Z" fill="#4893C1"/>
<path d="M14.7616 7.67478V11.3088C14.7616 11.5186 14.5887 11.6915 14.3789 11.6915H12.5937C12.3839 11.6915 12.2109 11.5186 12.2109 11.3088V7.67478C12.2109 7.46497 12.3839 7.29205 12.5937 7.29205H14.3789C14.5887 7.29205 14.7616 7.46497 14.7616 7.67478ZM14.0013 10.9312V8.05242H12.9713V10.9312H14.0013Z" fill="#4893C1"/>
<path d="M12.1093 6.1261H14.8698C15.0796 6.1261 15.2474 6.29903 15.2474 6.50883V7.67355C15.2474 7.88335 15.0796 8.05119 14.8698 8.05119H12.1093C11.8995 8.05119 11.7266 7.88462 11.7266 7.67355V6.50883C11.7266 6.29903 11.8995 6.1261 12.1093 6.1261ZM14.487 6.88647H12.4869V7.29082H14.487V6.88647Z" fill="#4893C1"/>
<path d="M6.89928 4.81134C7.10908 4.81134 7.27691 4.98426 7.27691 5.18898C7.27691 5.39369 7.11035 5.57171 6.89928 5.57171H6.87764C6.66784 5.57171 6.5 5.39878 6.5 5.18898C6.5 4.97918 6.66784 4.81134 6.87764 4.81134H6.89928Z" fill="#4893C1"/>
<path d="M6.89928 12.2472C7.10908 12.2472 7.27691 12.4138 7.27691 12.6248C7.27691 12.8359 7.11035 13.0076 6.89928 13.0076H6.87764C6.66784 13.0076 6.5 12.8346 6.5 12.6248C6.5 12.415 6.66784 12.2472 6.87764 12.2472H6.89928Z" fill="#4893C1"/>
<path d="M13.4949 4.81134C13.7047 4.81134 13.8777 4.98426 13.8777 5.18898C13.8777 5.39369 13.706 5.57171 13.4949 5.57171H13.4784C13.2686 5.57171 13.0957 5.39878 13.0957 5.18898C13.0957 4.97918 13.2686 4.81134 13.4784 4.81134H13.4949Z" fill="#4893C1"/>
<path d="M13.4949 12.2472C13.7047 12.2472 13.8777 12.4138 13.8777 12.6248C13.8777 12.8359 13.706 13.0076 13.4949 13.0076H13.4784C13.2686 13.0076 13.0957 12.8346 13.0957 12.6248C13.0957 12.415 13.2686 12.2472 13.4784 12.2472H13.4949Z" fill="#4893C1"/>
<path d="M12.5082 17.3905H7.33691V19.7466H12.5082V17.3905Z" fill="#4893C1"/>
<path d="M7.71935 19.3639H12.1303V17.7681H7.71935V19.3639ZM12.5079 20.1293H7.33662C7.12682 20.1293 6.95898 19.9564 6.95898 19.7466V17.3905C6.95898 17.1807 7.12555 17.0078 7.33662 17.0078H12.5079C12.7177 17.0078 12.8906 17.1807 12.8906 17.3905V19.7466C12.8906 19.9564 12.7177 20.1293 12.5079 20.1293Z" fill="#4893C1"/>
<path d="M12.5082 17.3371H7.33691V17.4452H12.5082V17.3371Z" fill="#4893C1"/>
<path d="M19.4956 10.1225C20.8765 10.1225 22.1277 10.6832 23.033 11.5835C23.9383 12.4888 24.5003 13.74 24.5003 15.1259C24.5003 16.5119 23.9396 17.7567 23.033 18.6633C22.1277 19.5686 20.8765 20.1307 19.4956 20.1307C18.1147 20.1307 16.8649 19.5699 15.9583 18.6633C15.0529 17.758 14.4922 16.5068 14.4922 15.1259C14.4922 13.7451 15.0529 12.4888 15.9583 11.5835C16.8649 10.6832 18.1147 10.1225 19.4956 10.1225ZM22.4939 12.1226C21.7284 11.3572 20.6654 10.8829 19.4956 10.8829C18.3258 10.8829 17.2641 11.3572 16.4974 12.1226C15.7256 12.8932 15.2513 13.9511 15.2513 15.1259C15.2513 16.3008 15.7256 17.3587 16.4974 18.1242C17.2628 18.8897 18.3258 19.3639 19.4956 19.3639C20.6654 19.3639 21.7284 18.8897 22.4939 18.1242C23.2644 17.3587 23.7387 16.2957 23.7387 15.1259C23.7387 13.9561 23.2644 12.8932 22.4939 12.1226Z" fill="#4893C1"/>
<path d="M19.6084 18.4306C19.5219 18.6251 19.2956 18.7053 19.1074 18.6137C18.9128 18.5222 18.8327 18.2958 18.9243 18.1076L19.9542 15.9397L18.4449 16.1609C18.2351 16.1876 18.0456 16.0427 18.0139 15.838C18.0037 15.7566 18.0189 15.6765 18.052 15.6066L19.8588 11.8161C19.9453 11.628 20.1716 11.5466 20.3598 11.633C20.5544 11.7246 20.6345 11.9509 20.5429 12.1404L19.0387 15.3052L20.548 15.089C20.6179 15.0789 20.6942 15.089 20.7641 15.1208C20.9523 15.2124 21.0337 15.4387 20.9473 15.6282L19.6096 18.4319L19.6084 18.4306Z" fill="#4893C1"/>
</svg>
