<svg width="40" height="41" viewBox="0 0 40 41" fill="none" xmlns="http://www.w3.org/2000/svg">
<path opacity="0.4" d="M7.2998 15.0284V25.9703C7.2998 27.42 8.07357 28.7602 9.32889 29.485L18.805 34.9552C20.0603 35.6817 21.6078 35.6817 22.8632 34.9552L32.3393 29.485C33.5947 28.7602 34.3683 27.42 34.3683 25.9703V15.0284C34.3683 13.5788 33.5947 12.2386 32.3393 11.5138L22.8632 6.0436C21.6078 5.3188 20.0603 5.3188 18.805 6.0436L9.32889 11.5138C8.07357 12.2386 7.2998 13.5788 7.2998 15.0284Z" stroke="#4893C1" stroke-width="2.5" stroke-linecap="round" stroke-linejoin="round"/>
<path d="M13.1084 24.9606L15.6092 23.5175" stroke="#4893C1" stroke-width="2.5" stroke-linecap="round" stroke-linejoin="round"/>
<path d="M28.5624 24.9606L26.0615 23.5175" stroke="#4893C1" stroke-width="2.5" stroke-linecap="round" stroke-linejoin="round"/>
<path d="M20.833 11.5807V14.4685" stroke="#4893C1" stroke-width="2.5" stroke-linecap="round" stroke-linejoin="round"/>
<path opacity="0.4" d="M20.833 35.4103V20.5455" stroke="#4893C1" stroke-width="2.5" stroke-linecap="round" stroke-linejoin="round"/>
<path opacity="0.4" d="M20.833 20.5458L33.7062 13.1123" stroke="#4893C1" stroke-width="2.5" stroke-linecap="round" stroke-linejoin="round"/>
<path opacity="0.4" d="M20.8317 20.5459L7.95898 13.114" stroke="#4893C1" stroke-width="2.5" stroke-linecap="round" stroke-linejoin="round"/>
</svg>
