<svg width="20" height="21" viewBox="0 0 20 21" fill="none" xmlns="http://www.w3.org/2000/svg">
<path fill-rule="evenodd" clip-rule="evenodd" d="M3.74884 6.68503L8.64467 10.6675C9.48217 11.3109 10.5738 11.3159 11.3497 10.6717L16.2463 6.67669C16.4488 7.06169 16.5797 7.50003 16.6297 7.97669L12.1447 11.6359C11.5372 12.1434 10.7905 12.3959 10.0322 12.3959C9.28051 12.3959 8.51801 12.1475 7.86801 11.6475L3.36801 7.98669C3.41801 7.51003 3.54717 7.07086 3.74884 6.68503ZM17.9163 8.40003C17.9163 8.14169 17.8897 7.89503 17.8497 7.65336C17.8238 7.47253 17.7838 7.30003 17.7397 7.12753C17.7355 7.11169 17.7338 7.09503 17.7297 7.07919L17.7272 7.08169C17.6113 6.64753 17.4538 6.23586 17.2347 5.86919L17.2405 5.86503C17.2322 5.85086 17.2213 5.83753 17.2122 5.82336C17.2072 5.81503 17.2005 5.80753 17.1955 5.79836C17.0572 5.57503 16.898 5.37003 16.7255 5.17836C16.7088 5.16003 16.6938 5.14086 16.6772 5.12336C16.4963 4.93003 16.3005 4.75503 16.088 4.60086C16.073 4.59003 16.0563 4.58003 16.0413 4.56919C15.8313 4.42086 15.6097 4.29169 15.3738 4.18503C15.3622 4.18003 15.3513 4.17336 15.3397 4.16753C15.1072 4.06586 14.8622 3.98836 14.6088 3.93086C14.5588 3.91919 14.508 3.91003 14.4563 3.90003C14.203 3.85253 13.9447 3.82003 13.6747 3.81919C13.6713 3.81919 13.6688 3.81836 13.6663 3.81836H6.33301C6.33051 3.81836 6.32801 3.81919 6.32551 3.81919C6.04134 3.82003 5.76967 3.85419 5.50634 3.90419C5.47801 3.91003 5.44967 3.91419 5.42134 3.92086C4.26801 4.16503 3.32467 4.86169 2.73967 5.86419L2.75884 5.88003C2.54051 6.24669 2.38384 6.65836 2.26884 7.09253L2.26051 7.08586C2.24967 7.13003 2.24384 7.17753 2.23301 7.22169C2.20217 7.35669 2.17217 7.49003 2.15134 7.62919C2.11134 7.87836 2.08301 8.13253 2.08301 8.40003V13.5684L2.08384 13.5734C2.08384 13.9084 2.11551 14.2317 2.17384 14.5425C2.17967 14.5734 2.19217 14.6017 2.19884 14.6325C2.25551 14.9092 2.32884 15.1767 2.42717 15.4284C2.48384 15.5759 2.56217 15.7075 2.63134 15.8459C2.69051 15.9609 2.73967 16.0825 2.80717 16.1909C2.95051 16.425 3.11551 16.6367 3.29551 16.8342C3.29717 16.8359 3.29801 16.8384 3.30051 16.84C3.34134 16.8859 3.37301 16.9417 3.41634 16.985C4.16634 17.735 5.16634 18.1517 6.33301 18.1517H13.6663C13.9413 18.1517 14.2105 18.1242 14.473 18.0717C15.2447 17.93 15.9155 17.5767 16.4638 17.0759C16.5022 17.0434 16.5455 17.0192 16.583 16.985C16.5972 16.9709 16.6072 16.9525 16.6205 16.9384C17.4272 16.12 17.9155 14.9475 17.9163 13.5717V8.40003Z" fill="#D0D0D0"/>
</svg>
