<svg width="20" height="21" viewBox="0 0 20 21" fill="none" xmlns="http://www.w3.org/2000/svg">
<path d="M3 7.98486H5.66667V17.9849H3V7.98486ZM4.32533 6.65153H4.31067C3.51467 6.65153 3 6.0582 3 5.31753C3 4.56086 3.53067 3.98486 4.34067 3.98486C5.152 3.98486 5.65133 4.56086 5.66667 5.31753C5.66667 6.0582 5.152 6.65153 4.32533 6.65153ZM17 11.6515C17 9.6262 15.3587 7.98486 13.3333 7.98486C12.092 7.98486 10.9967 8.60353 10.3333 9.54753V7.98486H7.66667V17.9849H10.3333V12.6515C10.3333 11.5469 11.2287 10.6515 12.3333 10.6515C13.438 10.6515 14.3333 11.5469 14.3333 12.6515V17.9849H17C17 17.9849 17 11.9322 17 11.6515Z" fill="#D0D0D0"/>
</svg>
