<svg width="20" height="21" viewBox="0 0 20 21" fill="none" xmlns="http://www.w3.org/2000/svg">
<path fill-rule="evenodd" clip-rule="evenodd" d="M10.2078 12.2308C8.9503 12.2308 7.92699 11.2083 7.92699 9.9508C7.92699 8.6933 8.9503 7.66997 10.2078 7.66997C11.4653 7.66997 12.4878 8.6933 12.4878 9.9508C12.4878 11.2083 11.4653 12.2308 10.2078 12.2308ZM14.8861 4.86163C13.6103 3.5458 11.9486 2.8208 10.2078 2.8208C8.4653 2.8208 6.80365 3.5458 5.52699 4.86247C4.23115 6.19913 3.51949 7.99497 3.57532 9.78997C3.73282 14.8766 9.72447 18.8375 9.9803 19.0033L10.2045 19.1491L10.4311 19.0058C10.6861 18.8441 16.682 14.9791 16.8403 9.78913C16.8953 7.99497 16.1828 6.1983 14.8861 4.86163Z" fill="#D0D0D0"/>
</svg>
