<svg width="24" height="25" viewBox="0 0 24 25" fill="none" xmlns="http://www.w3.org/2000/svg">
<path d="M1.12423 11.6639C1.1092 11.9738 0.84622 12.2124 0.534375 12.1974C0.224408 12.1823 -0.0160675 11.9099 0.00083975 11.6075C0.143612 8.9399 1.15616 6.5015 2.76423 4.57407C4.38921 2.6147 6.62848 1.18884 9.19275 0.574546C9.48769 0.50316 9.79015 0.685385 9.86154 0.987838C9.93293 1.29029 9.75071 1.59275 9.44826 1.66414C7.13008 2.21456 5.09933 3.51266 3.62464 5.28793C2.16686 7.03313 1.2501 9.23859 1.12423 11.6601V11.6639Z" fill="#4893C1"/>
<path d="M4.22921 11.2487C4.18975 11.5587 3.90983 11.7747 3.60738 11.7353C3.29742 11.6958 3.08141 11.4159 3.12086 11.1135C3.31999 9.49601 3.95682 8.02319 4.89799 6.79648C5.86171 5.55285 7.14479 4.5666 8.6176 3.95982C8.90503 3.84898 9.23001 3.98424 9.35024 4.26979C9.47047 4.55721 9.32583 4.88408 9.03841 5.00243C7.74782 5.52843 6.62441 6.38883 5.78092 7.48029C4.95998 8.55484 4.41143 9.84543 4.22732 11.2487H4.22921Z" fill="#4893C1"/>
<path d="M7.43212 10.8749C7.34383 11.1698 7.03386 11.337 6.73141 11.2487C6.43647 11.1604 6.26928 10.8504 6.35758 10.5555C6.50035 10.0783 6.69946 9.63124 6.94743 9.21795C7.20292 8.79526 7.51291 8.40453 7.86421 8.06262C8.07836 7.84659 8.43717 7.84658 8.6532 8.07013C8.86924 8.28429 8.86923 8.6431 8.64568 8.85914C8.36765 9.13717 8.1197 9.44901 7.91305 9.79091C7.71392 10.1328 7.54672 10.4916 7.43588 10.8749H7.43212Z" fill="#4893C1"/>
<path d="M17.9321 3.13135C17.6766 2.96416 17.5977 2.61286 17.7724 2.35173C17.9396 2.09625 18.2815 2.02486 18.5445 2.19206C20.7838 3.64984 22.3918 5.74446 23.2522 8.09457C24.137 10.4841 24.2554 13.1367 23.5077 15.6615C23.4194 15.9565 23.102 16.1237 22.807 16.0354C22.5121 15.9471 22.3449 15.6371 22.4238 15.3422C23.1095 13.0559 22.9967 10.6495 22.2002 8.48344C21.4112 6.34937 19.9609 4.44448 17.9302 3.12947L17.9321 3.13135Z" fill="#4893C1"/>
<path d="M16.7369 6.02434C16.4908 5.84024 16.442 5.49083 16.6261 5.24286C16.8177 4.99676 17.1671 4.94792 17.4151 5.13954C18.7057 6.11828 19.6694 7.40135 20.2593 8.83471C20.8567 10.285 21.0727 11.8949 20.8567 13.4711C20.8172 13.7735 20.5298 13.9896 20.2273 13.9482C19.9173 13.9088 19.7013 13.6289 19.7408 13.3189C19.9324 11.9325 19.7483 10.5311 19.2223 9.25552C18.7038 8.00438 17.8603 6.88099 16.7369 6.0206V6.02434Z" fill="#4893C1"/>
<path d="M15.4616 8.9869C15.2456 8.76335 15.2625 8.40454 15.486 8.19038C15.7096 7.98374 16.0684 7.99125 16.275 8.2148C16.6169 8.58113 16.9043 8.97939 17.1429 9.40207C17.374 9.83227 17.5562 10.2944 17.684 10.764C17.7629 11.0665 17.5806 11.3689 17.2782 11.4497C16.9832 11.5286 16.6733 11.3464 16.6019 11.0515C16.4986 10.6682 16.3558 10.2944 16.1548 9.94309C15.9632 9.60119 15.7321 9.27432 15.4616 8.9869Z" fill="#4893C1"/>
<path d="M16.9191 21.9566C17.1896 21.8139 17.5334 21.9247 17.6762 22.2027C17.8115 22.4732 17.7006 22.8151 17.4301 22.9523C15.048 24.1715 12.4274 24.5059 9.95706 24.0832C7.44727 23.653 5.08963 22.4263 3.28056 20.5139C3.06452 20.2903 3.07393 19.9334 3.29748 19.7249C3.52855 19.5088 3.87984 19.5182 4.094 19.7399C5.73588 21.4682 7.86995 22.5841 10.1487 22.9748C12.388 23.3581 14.7606 23.0537 16.9191 21.9548V21.9566Z" fill="#4893C1"/>
<path d="M15.0084 19.4713C15.2958 19.3436 15.6226 19.4788 15.741 19.7662C15.8612 20.0537 15.726 20.3881 15.4385 20.5064C13.9488 21.1282 12.3558 21.3198 10.8172 21.1188C9.25612 20.9047 7.75889 20.2904 6.50024 19.3097C6.25415 19.1181 6.21282 18.7687 6.40443 18.5207C6.58665 18.2822 6.94545 18.2333 7.18591 18.4249C8.29239 19.2853 9.59991 19.8188 10.9619 20.0029C12.2994 20.1777 13.6952 20.0198 15.0084 19.4694V19.4713Z" fill="#4893C1"/>
<path d="M13.0817 16.8807C13.3842 16.8168 13.6866 17.0009 13.758 17.3034C13.8294 17.6058 13.6396 17.9083 13.3353 17.9797C12.8581 18.0905 12.3716 18.1394 11.885 18.13C11.391 18.1225 10.9063 18.0511 10.4348 17.9158C10.1323 17.835 9.95759 17.5326 10.0365 17.2301C10.1154 16.9352 10.4273 16.7605 10.7222 16.8394C11.1129 16.9427 11.5037 16.9991 11.902 17.0066C12.2927 17.0141 12.691 16.9746 13.0817 16.8788V16.8807Z" fill="#4893C1"/>
<path fill-rule="evenodd" clip-rule="evenodd" d="M11.3756 0.805664H12.6024C12.9537 3.21213 13.303 5.62611 13.6543 8.0307L11.9899 9.5843L10.333 8.0307C10.6749 5.62423 11.0262 3.21026 11.3756 0.805664Z" fill="#4893C1"/>
<path d="M11.3756 0.240204H12.6023C12.8973 0.240204 13.1434 0.471272 13.1678 0.758696L14.2123 7.9518C14.2367 8.15093 14.1653 8.33503 14.0207 8.45338L12.3713 9.99946C12.1571 10.1986 11.8208 10.1986 11.6067 9.99946L9.94975 8.44587C9.80697 8.31813 9.75063 8.12651 9.77505 7.9518L10.8271 0.726751C10.8665 0.448721 11.1051 0.240204 11.3775 0.240204H11.3756ZM12.1158 1.3636H11.8603L10.921 7.82406L11.988 8.81971L13.0551 7.82406L12.1158 1.3636Z" fill="#4893C1"/>
<path fill-rule="evenodd" clip-rule="evenodd" d="M22.2095 17.4387C22.0029 17.7975 21.8038 18.1488 21.5952 18.5057C19.3334 17.5983 17.0697 16.6966 14.8079 15.7968L14.2988 13.5819L16.4742 12.9131C18.3866 14.4273 20.2971 15.932 22.2095 17.4387Z" fill="#4893C1"/>
<path d="M22.6713 17.758L22.0814 18.7856C21.9387 19.0242 21.6437 19.1275 21.3882 19.0242L14.6009 16.3153C14.4262 16.2439 14.3059 16.0917 14.2665 15.9245L13.748 13.7022C13.6841 13.4072 13.8683 13.1048 14.1632 13.0334L16.3142 12.3796C16.4964 12.3233 16.688 12.3721 16.8327 12.483L22.5605 17.001C22.7915 17.1832 22.8385 17.5176 22.6713 17.758ZM21.3582 17.805L21.4859 17.5814C19.9718 16.3867 19.8121 16.2589 16.4043 13.5744L16.3574 13.535L14.9635 13.9652L15.2978 15.3835L21.36 17.805H21.3582Z" fill="#4893C1"/>
<path fill-rule="evenodd" clip-rule="evenodd" d="M2.39067 18.5076C2.18402 18.1488 1.9755 17.7975 1.77637 17.4405C3.68877 15.9358 5.5993 14.4291 7.5117 12.915L9.68712 13.5838L9.16863 15.7986C6.90681 16.6985 4.64309 17.6002 2.38879 18.5076H2.39067Z" fill="#4893C1"/>
<path d="M1.89623 18.7687L1.29133 17.7167C1.14856 17.4781 1.21243 17.1663 1.42659 16.9991L7.16192 12.4735C7.3216 12.3458 7.53574 12.3214 7.71233 12.3946L9.84638 13.0484C10.1338 13.1273 10.2916 13.4222 10.2277 13.7021L9.71865 15.9245C9.67168 16.1236 9.52703 16.2664 9.34481 16.3303L2.58942 19.0223C2.32642 19.1256 2.03149 19.0148 1.89623 18.7668V18.7687ZM2.50113 17.5833L2.62886 17.8069L8.69107 15.3854L9.01794 13.967L7.62404 13.5368L2.50113 17.5833Z" fill="#4893C1"/>
<path fill-rule="evenodd" clip-rule="evenodd" d="M11.9895 13.2813C12.555 13.2813 13.0171 12.8192 13.0171 12.2538C13.0171 11.6883 12.555 11.2262 11.9895 11.2262C11.424 11.2262 10.9619 11.6808 10.9619 12.2538C10.9619 12.8267 11.424 13.2813 11.9895 13.2813Z" fill="#4893C1"/>
<path d="M11.9898 10.6607C12.4275 10.6607 12.8258 10.8354 13.1132 11.1228C13.4081 11.4178 13.5829 11.8085 13.5829 12.2538C13.5829 12.699 13.4081 13.0897 13.1132 13.3771C12.8258 13.6646 12.4275 13.8393 11.9898 13.8393C11.5521 13.8393 11.1614 13.6646 10.8664 13.3771V13.3696C10.579 13.0822 10.4043 12.684 10.4043 12.2556C10.4043 11.8273 10.579 11.4197 10.8664 11.1247C11.1538 10.8373 11.5521 10.6626 11.9898 10.6626V10.6607ZM12.3242 11.9194C12.2359 11.8405 12.1176 11.7841 11.9898 11.7841C11.8621 11.7841 11.7437 11.8405 11.6629 11.9194C11.5746 12.0077 11.5277 12.1185 11.5277 12.2538C11.5277 12.3815 11.5746 12.4923 11.6629 12.5806C11.7418 12.667 11.8621 12.7159 11.9898 12.7159C12.1176 12.7159 12.2378 12.6595 12.3242 12.5806C12.4031 12.4923 12.4595 12.3815 12.4595 12.2538C12.4595 12.1185 12.4031 12.0077 12.3242 11.9194Z" fill="#4893C1"/>
</svg>
