<svg width="48" height="48" viewBox="0 0 48 48" fill="none" xmlns="http://www.w3.org/2000/svg">
<path d="M35.8254 13.1883L35.8118 13.1747C35.3876 12.7504 35.0898 12.2172 35.0062 11.6237L34.619 8.90716C34.4906 8.0159 33.9126 7.25698 33.0972 6.86974C32.5388 6.60704 31.9686 6.36962 31.3866 6.1614C30.5382 5.85784 29.5926 5.98432 28.8706 6.5253L26.6716 8.17352C26.193 8.53354 25.6092 8.70088 25.0118 8.70088H24.9884C24.391 8.70088 23.8052 8.53354 23.3284 8.17352L21.1296 6.5253C20.4076 5.98432 19.4638 5.85784 18.6134 6.1614C18.0316 6.36962 17.4614 6.60508 16.9029 6.86974C16.0875 7.25504 15.5076 8.01396 15.3812 8.90716L14.992 11.6257C14.9063 12.2192 14.6105 12.7504 14.1883 13.1747C14.1844 13.1785 14.1785 13.1824 14.1747 13.1883C13.7504 13.6125 13.2172 13.9083 12.6237 13.9939L9.90716 14.3812C9.01396 14.5076 8.25698 15.0856 7.86974 15.9009C7.60508 16.4594 7.36962 17.0316 7.1614 17.6114C6.85784 18.4618 6.98432 19.4076 7.5253 20.1296L9.18326 22.3402C9.5277 22.7974 9.70866 23.356 9.71062 23.928C9.71062 23.9708 9.71062 24.0136 9.71256 24.0564C9.71646 24.6344 9.53158 25.1948 9.1852 25.658L7.5253 27.8706C6.98432 28.5906 6.85784 29.5364 7.1614 30.3848C7.36962 30.9666 7.60508 31.5388 7.86974 32.0972C8.25504 32.9126 9.01396 33.4906 9.90716 33.619L12.6257 34.0082C13.2192 34.0918 13.7504 34.3876 14.1747 34.8118C14.1785 34.8158 14.1824 34.8216 14.1883 34.8254C14.6105 35.2478 14.9063 35.7808 14.992 36.3744L15.3812 39.093C15.5076 39.9842 16.0856 40.7432 16.9009 41.1284C17.4594 41.393 18.0316 41.6304 18.6114 41.8386C19.4618 42.1422 20.4076 42.0158 21.1296 41.4728L23.3266 39.8266C23.8052 39.4666 24.391 39.2992 24.9904 39.3012H25.0098C25.6092 39.2992 26.1948 39.4666 26.6736 39.8266L28.8686 41.4728C29.5906 42.0138 30.5364 42.1422 31.3848 41.8386C31.9666 41.6304 32.5388 41.393 33.0972 41.1304C33.9126 40.7432 34.4906 39.9862 34.619 39.093L35.01 36.357C35.0918 35.7906 35.3564 35.2672 35.7612 34.8604C35.7904 34.8294 35.8196 34.8002 35.8488 34.771C36.2554 34.3584 36.7828 34.0918 37.355 34.01L40.093 33.619C40.9842 33.4906 41.7432 32.9126 42.1284 32.0972C42.393 31.5406 42.6304 30.9686 42.8386 30.3866C43.1422 29.5382 43.0158 28.5926 42.4728 27.8706L40.8148 25.658C40.4724 25.2008 40.2894 24.6442 40.2876 24.072C40.2876 24.0292 40.2876 23.9864 40.2856 23.9456C40.2816 23.3656 40.4666 22.8032 40.8148 22.3402L42.4728 20.1296C43.0138 19.4076 43.1422 18.4638 42.8386 17.6134C42.6304 17.0316 42.393 16.4614 42.1304 15.9029C41.7432 15.0875 40.9862 14.5076 40.093 14.3812L37.3724 13.992C36.781 13.9063 36.2478 13.6125 35.8254 13.1883Z" stroke="#4893C1" stroke-width="3" stroke-linecap="round" stroke-linejoin="round"/>
<path opacity="0.4" d="M32.0208 22.8769C32.7546 27.6795 28.6796 31.7563 23.877 31.0207C20.8842 30.5635 18.4381 28.1175 17.9808 25.1245C17.2452 20.3219 21.322 16.2451 26.1246 16.9807C29.1156 17.44 31.5616 19.886 32.0208 22.8769Z" stroke="#4893C1" stroke-width="3" stroke-linecap="round" stroke-linejoin="round"/>
</svg>
