<svg width="20" height="23" viewBox="0 0 20 23" fill="none" xmlns="http://www.w3.org/2000/svg">
<path fill-rule="evenodd" clip-rule="evenodd" d="M15.8694 15.2325C15.6427 14.7447 15.6582 14.0398 15.8789 13.6268C16.1507 13.1129 16.6242 12.6358 17.0265 12.2228C17.3339 11.9012 17.6555 11.5736 17.9119 11.2164C18.7925 9.98805 17.5642 9.45517 16.8948 10.2907C15.3092 12.2631 12.3956 14.2214 11.6907 16.0787C11.4592 16.6875 11.3536 17.3818 11.4794 18.0263C11.5696 19.0279 11.6254 20.2456 11.5755 21.3173C11.515 21.5689 11.5257 22.0365 11.8271 22.1326C12.3553 22.3035 14.1877 22.3237 14.7514 22.2026C15.0992 22.1326 15.0885 21.468 15.1039 21.1962V21.1262C15.1336 20.5779 15.1846 20.0237 15.2997 19.486C15.416 18.9425 15.6012 18.4084 15.9038 17.9361C16.4521 17.0756 17.3232 16.2947 18.078 15.6111C18.3795 15.3393 18.6821 15.0676 18.9693 14.7804C19.1806 14.5644 19.4168 14.3128 19.5687 14.0552C19.9354 13.4262 19.9817 11.4537 19.9912 10.7132C20.0018 10.2954 20.0019 9.87767 19.9959 9.45991C19.9805 8.5888 19.9508 7.71888 19.8903 6.84776C19.8499 6.24368 19.8048 5.59925 19.704 5.00584C19.6589 4.72932 19.5331 4.41244 19.266 4.28071C19.1806 4.24036 19.0844 4.22018 18.9895 4.23086C18.8886 4.24035 18.7984 4.28071 18.7177 4.33649C18.4507 4.52281 18.3605 4.87529 18.3605 5.18742V9.8575C18.4258 9.93345 18.4709 9.99873 18.5112 10.0889C18.713 10.5518 18.4816 11.0502 18.2145 11.4324C17.9475 11.805 17.6152 12.1468 17.2936 12.4791C16.9209 12.866 16.4628 13.3241 16.2065 13.8024C15.9596 14.27 15.7994 14.7032 15.8694 15.2313V15.2325Z" fill="#4893C1"/>
<path fill-rule="evenodd" clip-rule="evenodd" d="M4.1237 15.2325C4.35513 14.7447 4.3397 14.0398 4.11895 13.6268C3.84243 13.1129 3.37364 12.6358 2.97132 12.2228C2.66393 11.9012 2.33756 11.5736 2.08002 11.2164C1.20416 9.98805 2.4325 9.45517 3.10186 10.2907C4.68743 12.2631 7.59629 14.2214 8.306 16.0787C8.53742 16.6875 8.64305 17.3818 8.5125 18.0263C8.42705 19.0279 8.36652 20.2456 8.4223 21.3173C8.48283 21.5689 8.4674 22.0365 8.16596 22.1326C7.64258 22.3035 5.81015 22.3237 5.24642 22.2026C4.89868 22.1326 4.90937 21.468 4.89394 21.1962L4.88919 21.1262C4.86426 20.5779 4.81442 20.0237 4.69811 19.486C4.57706 18.9425 4.39667 18.4084 4.09403 17.9361C3.54573 17.0756 2.67461 16.2947 1.91506 15.6111C1.61836 15.3393 1.31573 15.0676 1.02971 14.7804C0.818456 14.5644 0.582279 14.3128 0.425621 14.0552C0.0636459 13.4262 0.018545 11.4537 0.0078638 10.7132C-0.00163062 10.2954 -0.00162801 9.87767 0.0031192 9.45991C0.0126136 8.5888 0.0482148 7.71888 0.103995 6.84776C0.144346 6.24368 0.189445 5.59925 0.290324 5.00584C0.340169 4.72932 0.461228 4.41244 0.733006 4.28071C0.818456 4.24036 0.914582 4.22018 1.00953 4.23086C1.10566 4.24035 1.20061 4.28071 1.28131 4.33649C1.54834 4.52281 1.63854 4.87529 1.63854 5.18742V9.8575C1.57326 9.93345 1.52816 9.99873 1.48781 10.0889C1.28605 10.5518 1.51748 11.0502 1.77977 11.4324C2.05155 11.805 2.38384 12.1468 2.70072 12.4791C3.07812 12.866 3.53623 13.3241 3.78784 13.8024C4.03944 14.27 4.19609 14.7032 4.12488 15.2313L4.1237 15.2325Z" fill="#4893C1"/>
<path d="M13.8524 2.46488C13.7218 2.32365 13.7313 2.09697 13.8725 1.96643C14.0185 1.83588 14.2452 1.84537 14.3757 1.99134C14.8635 2.53015 15.2611 3.15441 15.5281 3.84394C15.7845 4.5133 15.9257 5.23251 15.9257 5.98732C15.9257 7.62273 15.2611 9.10742 14.1894 10.1791C13.1177 11.2508 11.6378 11.9154 9.99763 11.9154C9.81605 11.9154 9.62497 11.9059 9.4339 11.8857C9.23808 11.8703 9.05175 11.8406 8.87017 11.805C8.67909 11.7694 8.55329 11.5831 8.5889 11.392C8.6245 11.2009 8.81082 11.0751 9.00665 11.1107C9.1728 11.1463 9.33895 11.1665 9.50036 11.1808C9.65583 11.1962 9.82199 11.2057 9.99882 11.2057C11.4432 11.2057 12.7463 10.6218 13.6922 9.67589C14.6333 8.73476 15.2172 7.42691 15.2172 5.98732C15.2172 5.31796 15.0961 4.6842 14.8695 4.1003C14.6333 3.49147 14.2855 2.93841 13.8524 2.46488ZM6.28768 9.65691C6.42417 9.79814 6.42417 10.0189 6.28294 10.1554C6.14171 10.2966 5.92096 10.2907 5.77973 10.1554C5.24092 9.60707 4.80892 8.95788 4.51103 8.23749C4.22858 7.54321 4.06836 6.78365 4.06836 5.9885C4.06836 4.73998 4.45526 3.58285 5.11987 2.62154C5.79872 1.64005 6.76596 0.869816 7.90292 0.442567C8.0845 0.372546 8.291 0.467489 8.36102 0.64907C8.4263 0.830651 8.33611 1.03715 8.14978 1.10717C7.15286 1.48458 6.29836 2.15869 5.69903 3.02505C5.11987 3.86531 4.77807 4.88714 4.77807 5.98968C4.77807 6.69465 4.91929 7.36401 5.1709 7.97284C5.42725 8.60659 5.81059 9.17506 6.28768 9.65928V9.65691Z" fill="#4893C1"/>
<path fill-rule="evenodd" clip-rule="evenodd" d="M10.7614 5.17324H13.2726L6.87695 11.5594L8.71294 6.8039H7.18315L9.64933 0.416534H13.58L10.7614 5.17324Z" fill="#4893C1"/>
<path d="M11.386 4.81597H13.273C13.4688 4.81597 13.6255 4.97737 13.6255 5.1732C13.6255 5.27882 13.5804 5.37495 13.5044 5.44023L7.12773 11.811C6.9865 11.9522 6.76575 11.9522 6.62452 11.811C6.52365 11.7054 6.49873 11.5546 6.55451 11.4229L8.19467 7.1599H7.18351C6.98769 7.1599 6.83103 6.9985 6.83103 6.80268C6.83103 6.7469 6.84053 6.69705 6.86664 6.65196L9.31738 0.285941C9.37316 0.144712 9.50846 0.0592651 9.64969 0.0592651H13.5804C13.7762 0.0592651 13.9376 0.220672 13.9376 0.416494C13.9376 0.486515 13.9127 0.557719 13.8723 0.612312L11.386 4.81479V4.81597ZM12.4173 5.52568H10.7617C10.7012 5.52568 10.6407 5.51025 10.5801 5.47583C10.414 5.37495 10.3582 5.15896 10.4591 4.99281L12.9549 0.770159H9.89061L7.70095 6.45139H8.71211C8.75246 6.45139 8.79756 6.46207 8.83791 6.47631C9.0195 6.54633 9.10969 6.75283 9.03967 6.93442L7.80658 10.1305L12.4161 5.52568H12.4173Z" fill="#4893C1"/>
</svg>
