<svg width="453" height="187" viewBox="0 0 453 187" fill="none" xmlns="http://www.w3.org/2000/svg">
<rect width="548" height="186" transform="translate(-47.5 0.5)" fill="#142130"/>
<path d="M210.5 11.5762C210.5 7.15789 214.082 3.57617 218.5 3.57617H497.5V35.5762H218.5C214.082 35.5762 210.5 31.9944 210.5 27.5762V11.5762Z" fill="url(#paint0_linear_1041_1745)"/>
<path d="M210.5 12.0762C210.5 7.65789 214.082 4.07617 218.5 4.07617H353.5V36.0762H218.5C214.082 36.0762 210.5 32.4944 210.5 28.0762V12.0762Z" fill="#20344B"/>
<path d="M219.5 25.4162H231.5V13.4162H219.5V25.4162Z" fill="black"/>
<path d="M244.219 17.1415C244.173 16.7381 243.986 16.4256 243.656 16.204C243.327 15.9796 242.912 15.8674 242.412 15.8674C242.054 15.8674 241.744 15.9242 241.483 16.0378C241.222 16.1486 241.018 16.302 240.874 16.498C240.732 16.6912 240.661 16.9114 240.661 17.1586C240.661 17.3659 240.709 17.5449 240.805 17.6955C240.905 17.8461 241.034 17.9725 241.193 18.0748C241.355 18.1742 241.528 18.258 241.713 18.3262C241.898 18.3915 242.075 18.4455 242.246 18.4881L243.098 18.7097C243.376 18.7779 243.662 18.8702 243.955 18.9867C244.247 19.1032 244.518 19.2566 244.768 19.4469C245.018 19.6373 245.22 19.873 245.374 20.1543C245.53 20.4355 245.608 20.7722 245.608 21.1642C245.608 21.6586 245.48 22.0975 245.224 22.481C244.972 22.8645 244.604 23.1671 244.121 23.3887C243.641 23.6103 243.06 23.7211 242.378 23.7211C241.724 23.7211 241.159 23.6174 240.682 23.41C240.205 23.2026 239.831 22.9086 239.561 22.5279C239.291 22.1444 239.142 21.6898 239.114 21.1642H240.435C240.46 21.4796 240.563 21.7424 240.741 21.9526C240.923 22.16 241.155 22.3148 241.436 22.4171C241.72 22.5165 242.031 22.5662 242.369 22.5662C242.741 22.5662 243.072 22.508 243.362 22.3915C243.655 22.2722 243.885 22.1074 244.053 21.8972C244.22 21.6841 244.304 21.4355 244.304 21.1515C244.304 20.8929 244.23 20.6813 244.082 20.5165C243.938 20.3517 243.74 20.2154 243.49 20.1074C243.243 19.9995 242.963 19.9043 242.651 19.8219L241.619 19.5407C240.92 19.3503 240.366 19.0705 239.957 18.7012C239.551 18.3319 239.348 17.8432 239.348 17.2353C239.348 16.7324 239.484 16.2935 239.757 15.9185C240.03 15.5435 240.399 15.2523 240.865 15.0449C241.331 14.8347 241.857 14.7296 242.442 14.7296C243.033 14.7296 243.554 14.8333 244.006 15.0407C244.46 15.248 244.818 15.5336 245.08 15.8972C245.341 16.258 245.477 16.6728 245.489 17.1415H244.219ZM250.135 17.0307V18.0534H246.559V17.0307H250.135ZM247.518 15.4625H248.792V21.6543C248.792 21.9015 248.829 22.0875 248.903 22.2125C248.977 22.3347 249.072 22.4185 249.189 22.464C249.308 22.5066 249.437 22.5279 249.576 22.5279C249.679 22.5279 249.768 22.5208 249.845 22.5066C249.922 22.4924 249.981 22.481 250.024 22.4725L250.254 23.525C250.18 23.5534 250.075 23.5819 249.939 23.6103C249.802 23.6415 249.632 23.6586 249.427 23.6614C249.092 23.6671 248.779 23.6074 248.49 23.4824C248.2 23.3574 247.966 23.1642 247.787 22.9029C247.608 22.6415 247.518 22.3134 247.518 21.9185V15.4625ZM251.544 23.5762V17.0307H252.776V18.0705H252.844C252.963 17.7182 253.173 17.4412 253.474 17.2395C253.778 17.035 254.122 16.9327 254.506 16.9327C254.585 16.9327 254.679 16.9355 254.787 16.9412C254.898 16.9469 254.984 16.954 255.047 16.9625V18.1813C254.996 18.1671 254.905 18.1515 254.774 18.1344C254.643 18.1145 254.513 18.1046 254.382 18.1046C254.081 18.1046 253.813 18.1685 253.577 18.2963C253.344 18.4213 253.159 18.5961 253.023 18.8205C252.886 19.0421 252.818 19.2949 252.818 19.579V23.5762H251.544ZM257.996 23.7211C257.581 23.7211 257.206 23.6444 256.871 23.4909C256.536 23.3347 256.27 23.1088 256.074 22.8134C255.881 22.5179 255.784 22.1557 255.784 21.7267C255.784 21.3574 255.855 21.0534 255.997 20.8148C256.139 20.5762 256.331 20.3873 256.572 20.248C256.814 20.1088 257.084 20.0037 257.382 19.9327C257.68 19.8617 257.984 19.8077 258.294 19.7708C258.686 19.7253 259.004 19.6884 259.249 19.66C259.493 19.6287 259.67 19.579 259.781 19.5108C259.892 19.4426 259.947 19.3319 259.947 19.1784V19.1486C259.947 18.7765 259.842 18.4881 259.632 18.2836C259.425 18.079 259.115 17.9767 258.703 17.9767C258.274 17.9767 257.936 18.0719 257.689 18.2623C257.445 18.4498 257.276 18.6586 257.182 18.8887L255.984 18.6159C256.126 18.2182 256.334 17.8972 256.607 17.6529C256.882 17.4057 257.199 17.2267 257.557 17.1159C257.915 17.0023 258.291 16.9455 258.686 16.9455C258.947 16.9455 259.224 16.9767 259.517 17.0392C259.813 17.0989 260.088 17.2097 260.344 17.3716C260.602 17.5336 260.814 17.7651 260.979 18.0662C261.143 18.3645 261.226 18.7523 261.226 19.2296V23.5762H259.982V22.6813H259.93C259.848 22.8461 259.724 23.008 259.56 23.1671C259.395 23.3262 259.183 23.4583 258.925 23.5634C258.666 23.6685 258.357 23.7211 257.996 23.7211ZM258.273 22.6983C258.625 22.6983 258.926 22.6287 259.176 22.4895C259.429 22.3503 259.621 22.1685 259.751 21.9441C259.885 21.7168 259.952 21.4739 259.952 21.2154V20.3716C259.906 20.4171 259.818 20.4597 259.688 20.4995C259.56 20.5364 259.413 20.5691 259.249 20.5975C259.084 20.623 258.923 20.6472 258.767 20.6699C258.611 20.6898 258.48 20.7069 258.375 20.7211C258.128 20.7523 257.902 20.8049 257.697 20.8787C257.496 20.9526 257.334 21.0591 257.212 21.1983C257.092 21.3347 257.033 21.5165 257.033 21.7438C257.033 22.0591 257.149 22.2978 257.382 22.4597C257.615 22.6188 257.912 22.6983 258.273 22.6983ZM265.978 17.0307V18.0534H262.403V17.0307H265.978ZM263.362 15.4625H264.636V21.6543C264.636 21.9015 264.673 22.0875 264.747 22.2125C264.821 22.3347 264.916 22.4185 265.032 22.464C265.152 22.5066 265.281 22.5279 265.42 22.5279C265.522 22.5279 265.612 22.5208 265.689 22.5066C265.765 22.4924 265.825 22.481 265.868 22.4725L266.098 23.525C266.024 23.5534 265.919 23.5819 265.782 23.6103C265.646 23.6415 265.475 23.6586 265.271 23.6614C264.936 23.6671 264.623 23.6074 264.333 23.4824C264.044 23.3574 263.809 23.1642 263.63 22.9029C263.451 22.6415 263.362 22.3134 263.362 21.9185V15.4625ZM270.138 23.7083C269.494 23.7083 268.938 23.5705 268.472 23.2949C268.009 23.0165 267.651 22.6259 267.398 22.123C267.148 21.6174 267.023 21.025 267.023 20.3461C267.023 19.6756 267.148 19.0847 267.398 18.5733C267.651 18.062 268.004 17.6628 268.455 17.3759C268.91 17.089 269.441 16.9455 270.049 16.9455C270.418 16.9455 270.776 17.0066 271.123 17.1287C271.469 17.2509 271.781 17.4426 272.056 17.704C272.332 17.9654 272.549 18.3049 272.708 18.7225C272.867 19.1373 272.947 19.6415 272.947 20.2353V20.687H267.744V19.7324H271.698C271.698 19.3972 271.63 19.1003 271.494 18.8418C271.357 18.5804 271.165 18.3745 270.918 18.2239C270.674 18.0733 270.387 17.998 270.058 17.998C269.7 17.998 269.387 18.0861 269.12 18.2623C268.856 18.4355 268.651 18.6628 268.506 18.9441C268.364 19.2225 268.293 19.525 268.293 19.8517V20.5975C268.293 21.035 268.37 21.4071 268.523 21.714C268.68 22.0208 268.897 22.2551 269.175 22.4171C269.454 22.5762 269.779 22.6557 270.151 22.6557C270.393 22.6557 270.613 22.6216 270.812 22.5534C271.011 22.4824 271.183 22.3773 271.327 22.2381C271.472 22.0989 271.583 21.927 271.66 21.7225L272.866 21.9398C272.769 22.2949 272.596 22.606 272.346 22.873C272.099 23.1373 271.788 23.3432 271.413 23.4909C271.04 23.6358 270.616 23.7083 270.138 23.7083ZM277.105 26.1671C276.585 26.1671 276.137 26.0989 275.762 25.9625C275.39 25.8262 275.086 25.6458 274.85 25.4213C274.615 25.1969 274.439 24.9512 274.322 24.6841L275.417 24.2324C275.494 24.3574 275.596 24.4895 275.724 24.6287C275.855 24.7708 276.031 24.8915 276.252 24.9909C276.477 25.0904 276.765 25.1401 277.118 25.1401C277.6 25.1401 278 25.0222 278.315 24.7864C278.63 24.5534 278.788 24.1813 278.788 23.6699V22.383H278.707C278.63 22.5222 278.52 22.677 278.375 22.8475C278.233 23.0179 278.037 23.1657 277.787 23.2907C277.537 23.4157 277.211 23.4782 276.811 23.4782C276.294 23.4782 275.828 23.3574 275.413 23.1159C275.001 22.8716 274.674 22.5123 274.433 22.0378C274.194 21.5605 274.075 20.9739 274.075 20.2779C274.075 19.5819 274.193 18.9853 274.429 18.4881C274.667 17.9909 274.994 17.6103 275.409 17.3461C275.824 17.079 276.294 16.9455 276.819 16.9455C277.225 16.9455 277.554 17.0137 277.804 17.15C278.054 17.2836 278.248 17.4398 278.387 17.6188C278.529 17.7978 278.639 17.9554 278.716 18.0918H278.809V17.0307H280.058V23.7211C280.058 24.2836 279.927 24.7452 279.666 25.106C279.404 25.4668 279.051 25.7338 278.605 25.9071C278.162 26.0804 277.662 26.1671 277.105 26.1671ZM277.092 22.4213C277.458 22.4213 277.768 22.3361 278.021 22.1657C278.277 21.9924 278.47 21.7452 278.6 21.4242C278.734 21.1003 278.801 20.7125 278.801 20.2608C278.801 19.8205 278.735 19.4327 278.605 19.0975C278.474 18.7623 278.282 18.5009 278.029 18.3134C277.777 18.123 277.464 18.0279 277.092 18.0279C276.708 18.0279 276.389 18.1273 276.133 18.3262C275.877 18.5222 275.684 18.7892 275.554 19.1273C275.426 19.4654 275.362 19.8432 275.362 20.2608C275.362 20.6898 275.427 21.0662 275.558 21.3901C275.689 21.714 275.882 21.9668 276.137 22.1486C276.396 22.3304 276.714 22.4213 277.092 22.4213ZM282.572 26.0307C282.382 26.0307 282.208 26.0151 282.052 25.9838C281.896 25.9554 281.779 25.9242 281.703 25.8901L282.01 24.8461C282.243 24.9086 282.45 24.9355 282.632 24.927C282.814 24.9185 282.974 24.8503 283.113 24.7225C283.255 24.5946 283.38 24.3858 283.488 24.0961L283.646 23.6614L281.251 17.0307H282.615L284.272 22.1103H284.341L285.998 17.0307H287.366L284.669 24.4498C284.544 24.7907 284.385 25.079 284.191 25.3148C283.998 25.5534 283.768 25.7324 283.501 25.8517C283.234 25.9711 282.924 26.0307 282.572 26.0307ZM295.033 14.8489V23.5762H293.712V16.1699H293.661L291.573 17.5336V16.2722L293.751 14.8489H295.033Z" fill="#9FB0BF"/>
<path d="M147.5 54.5762C147.5 50.1579 151.082 46.5762 155.5 46.5762H497.5V78.5762H155.5C151.082 78.5762 147.5 74.9944 147.5 70.5762V54.5762Z" fill="url(#paint1_linear_1041_1745)"/>
<path d="M147.5 55.0762C147.5 50.6579 151.082 47.0762 155.5 47.0762H415.5V79.0762H155.5C151.082 79.0762 147.5 75.4944 147.5 71.0762V55.0762Z" fill="#20344B"/>
<path d="M158.5 68.4162H170.5V56.4162H158.5V68.4162Z" fill="black"/>
<path d="M183.219 60.1415C183.173 59.7381 182.986 59.4256 182.656 59.204C182.327 58.9796 181.912 58.8674 181.412 58.8674C181.054 58.8674 180.744 58.9242 180.483 59.0378C180.222 59.1486 180.018 59.302 179.874 59.498C179.732 59.6912 179.661 59.9114 179.661 60.1586C179.661 60.3659 179.709 60.5449 179.805 60.6955C179.905 60.8461 180.034 60.9725 180.193 61.0748C180.355 61.1742 180.528 61.258 180.713 61.3262C180.898 61.3915 181.075 61.4455 181.246 61.4881L182.098 61.7097C182.376 61.7779 182.662 61.8702 182.955 61.9867C183.247 62.1032 183.518 62.2566 183.768 62.4469C184.018 62.6373 184.22 62.873 184.374 63.1543C184.53 63.4355 184.608 63.7722 184.608 64.1642C184.608 64.6586 184.48 65.0975 184.224 65.481C183.972 65.8645 183.604 66.1671 183.121 66.3887C182.641 66.6103 182.06 66.7211 181.378 66.7211C180.724 66.7211 180.159 66.6174 179.682 66.41C179.205 66.2026 178.831 65.9086 178.561 65.5279C178.291 65.1444 178.142 64.6898 178.114 64.1642H179.435C179.46 64.4796 179.563 64.7424 179.741 64.9526C179.923 65.16 180.155 65.3148 180.436 65.4171C180.72 65.5165 181.031 65.5662 181.369 65.5662C181.741 65.5662 182.072 65.508 182.362 65.3915C182.655 65.2722 182.885 65.1074 183.053 64.8972C183.22 64.6841 183.304 64.4355 183.304 64.1515C183.304 63.8929 183.23 63.6813 183.082 63.5165C182.938 63.3517 182.74 63.2154 182.49 63.1074C182.243 62.9995 181.963 62.9043 181.651 62.8219L180.619 62.5407C179.92 62.3503 179.366 62.0705 178.957 61.7012C178.551 61.3319 178.348 60.8432 178.348 60.2353C178.348 59.7324 178.484 59.2935 178.757 58.9185C179.03 58.5435 179.399 58.2523 179.865 58.0449C180.331 57.8347 180.857 57.7296 181.442 57.7296C182.033 57.7296 182.554 57.8333 183.006 58.0407C183.46 58.248 183.818 58.5336 184.08 58.8972C184.341 59.258 184.477 59.6728 184.489 60.1415H183.219ZM189.135 60.0307V61.0534H185.559V60.0307H189.135ZM186.518 58.4625H187.792V64.6543C187.792 64.9015 187.829 65.0875 187.903 65.2125C187.977 65.3347 188.072 65.4185 188.189 65.464C188.308 65.5066 188.437 65.5279 188.576 65.5279C188.679 65.5279 188.768 65.5208 188.845 65.5066C188.922 65.4924 188.981 65.481 189.024 65.4725L189.254 66.525C189.18 66.5534 189.075 66.5819 188.939 66.6103C188.802 66.6415 188.632 66.6586 188.427 66.6614C188.092 66.6671 187.779 66.6074 187.49 66.4824C187.2 66.3574 186.966 66.1642 186.787 65.9029C186.608 65.6415 186.518 65.3134 186.518 64.9185V58.4625ZM190.544 66.5762V60.0307H191.776V61.0705H191.844C191.963 60.7182 192.173 60.4412 192.474 60.2395C192.778 60.035 193.122 59.9327 193.506 59.9327C193.585 59.9327 193.679 59.9355 193.787 59.9412C193.898 59.9469 193.984 59.954 194.047 59.9625V61.1813C193.996 61.1671 193.905 61.1515 193.774 61.1344C193.643 61.1145 193.513 61.1046 193.382 61.1046C193.081 61.1046 192.813 61.1685 192.577 61.2963C192.344 61.4213 192.159 61.5961 192.023 61.8205C191.886 62.0421 191.818 62.2949 191.818 62.579V66.5762H190.544ZM196.996 66.7211C196.581 66.7211 196.206 66.6444 195.871 66.4909C195.536 66.3347 195.27 66.1088 195.074 65.8134C194.881 65.5179 194.784 65.1557 194.784 64.7267C194.784 64.3574 194.855 64.0534 194.997 63.8148C195.139 63.5762 195.331 63.3873 195.572 63.248C195.814 63.1088 196.084 63.0037 196.382 62.9327C196.68 62.8617 196.984 62.8077 197.294 62.7708C197.686 62.7253 198.004 62.6884 198.249 62.66C198.493 62.6287 198.67 62.579 198.781 62.5108C198.892 62.4426 198.947 62.3319 198.947 62.1784V62.1486C198.947 61.7765 198.842 61.4881 198.632 61.2836C198.425 61.079 198.115 60.9767 197.703 60.9767C197.274 60.9767 196.936 61.0719 196.689 61.2623C196.445 61.4498 196.276 61.6586 196.182 61.8887L194.984 61.6159C195.126 61.2182 195.334 60.8972 195.607 60.6529C195.882 60.4057 196.199 60.2267 196.557 60.1159C196.915 60.0023 197.291 59.9455 197.686 59.9455C197.947 59.9455 198.224 59.9767 198.517 60.0392C198.813 60.0989 199.088 60.2097 199.344 60.3716C199.602 60.5336 199.814 60.7651 199.979 61.0662C200.143 61.3645 200.226 61.7523 200.226 62.2296V66.5762H198.982V65.6813H198.93C198.848 65.8461 198.724 66.008 198.56 66.1671C198.395 66.3262 198.183 66.4583 197.925 66.5634C197.666 66.6685 197.357 66.7211 196.996 66.7211ZM197.273 65.6983C197.625 65.6983 197.926 65.6287 198.176 65.4895C198.429 65.3503 198.621 65.1685 198.751 64.9441C198.885 64.7168 198.952 64.4739 198.952 64.2154V63.3716C198.906 63.4171 198.818 63.4597 198.688 63.4995C198.56 63.5364 198.413 63.5691 198.249 63.5975C198.084 63.623 197.923 63.6472 197.767 63.6699C197.611 63.6898 197.48 63.7069 197.375 63.7211C197.128 63.7523 196.902 63.8049 196.697 63.8787C196.496 63.9526 196.334 64.0591 196.212 64.1983C196.092 64.3347 196.033 64.5165 196.033 64.7438C196.033 65.0591 196.149 65.2978 196.382 65.4597C196.615 65.6188 196.912 65.6983 197.273 65.6983ZM204.978 60.0307V61.0534H201.403V60.0307H204.978ZM202.362 58.4625H203.636V64.6543C203.636 64.9015 203.673 65.0875 203.747 65.2125C203.821 65.3347 203.916 65.4185 204.032 65.464C204.152 65.5066 204.281 65.5279 204.42 65.5279C204.522 65.5279 204.612 65.5208 204.689 65.5066C204.765 65.4924 204.825 65.481 204.868 65.4725L205.098 66.525C205.024 66.5534 204.919 66.5819 204.782 66.6103C204.646 66.6415 204.475 66.6586 204.271 66.6614C203.936 66.6671 203.623 66.6074 203.333 66.4824C203.044 66.3574 202.809 66.1642 202.63 65.9029C202.451 65.6415 202.362 65.3134 202.362 64.9185V58.4625ZM209.138 66.7083C208.494 66.7083 207.938 66.5705 207.472 66.2949C207.009 66.0165 206.651 65.6259 206.398 65.123C206.148 64.6174 206.023 64.025 206.023 63.3461C206.023 62.6756 206.148 62.0847 206.398 61.5733C206.651 61.062 207.004 60.6628 207.455 60.3759C207.91 60.089 208.441 59.9455 209.049 59.9455C209.418 59.9455 209.776 60.0066 210.123 60.1287C210.469 60.2509 210.781 60.4426 211.056 60.704C211.332 60.9654 211.549 61.3049 211.708 61.7225C211.867 62.1373 211.947 62.6415 211.947 63.2353V63.687H206.744V62.7324H210.698C210.698 62.3972 210.63 62.1003 210.494 61.8418C210.357 61.5804 210.165 61.3745 209.918 61.2239C209.674 61.0733 209.387 60.998 209.058 60.998C208.7 60.998 208.387 61.0861 208.12 61.2623C207.856 61.4355 207.651 61.6628 207.506 61.9441C207.364 62.2225 207.293 62.525 207.293 62.8517V63.5975C207.293 64.035 207.37 64.4071 207.523 64.714C207.68 65.0208 207.897 65.2551 208.175 65.4171C208.454 65.5762 208.779 65.6557 209.151 65.6557C209.393 65.6557 209.613 65.6216 209.812 65.5534C210.011 65.4824 210.183 65.3773 210.327 65.2381C210.472 65.0989 210.583 64.927 210.66 64.7225L211.866 64.9398C211.769 65.2949 211.596 65.606 211.346 65.873C211.099 66.1373 210.788 66.3432 210.413 66.4909C210.04 66.6358 209.616 66.7083 209.138 66.7083ZM216.105 69.1671C215.585 69.1671 215.137 69.0989 214.762 68.9625C214.39 68.8262 214.086 68.6458 213.85 68.4213C213.615 68.1969 213.439 67.9512 213.322 67.6841L214.417 67.2324C214.494 67.3574 214.596 67.4895 214.724 67.6287C214.855 67.7708 215.031 67.8915 215.252 67.9909C215.477 68.0904 215.765 68.1401 216.118 68.1401C216.6 68.1401 217 68.0222 217.315 67.7864C217.63 67.5534 217.788 67.1813 217.788 66.6699V65.383H217.707C217.63 65.5222 217.52 65.677 217.375 65.8475C217.233 66.0179 217.037 66.1657 216.787 66.2907C216.537 66.4157 216.211 66.4782 215.811 66.4782C215.294 66.4782 214.828 66.3574 214.413 66.1159C214.001 65.8716 213.674 65.5123 213.433 65.0378C213.194 64.5605 213.075 63.9739 213.075 63.2779C213.075 62.5819 213.193 61.9853 213.429 61.4881C213.667 60.9909 213.994 60.6103 214.409 60.3461C214.824 60.079 215.294 59.9455 215.819 59.9455C216.225 59.9455 216.554 60.0137 216.804 60.15C217.054 60.2836 217.248 60.4398 217.387 60.6188C217.529 60.7978 217.639 60.9554 217.716 61.0918H217.809V60.0307H219.058V66.7211C219.058 67.2836 218.927 67.7452 218.666 68.106C218.404 68.4668 218.051 68.7338 217.605 68.9071C217.162 69.0804 216.662 69.1671 216.105 69.1671ZM216.092 65.4213C216.458 65.4213 216.768 65.3361 217.021 65.1657C217.277 64.9924 217.47 64.7452 217.6 64.4242C217.734 64.1003 217.801 63.7125 217.801 63.2608C217.801 62.8205 217.735 62.4327 217.605 62.0975C217.474 61.7623 217.282 61.5009 217.029 61.3134C216.777 61.123 216.464 61.0279 216.092 61.0279C215.708 61.0279 215.389 61.1273 215.133 61.3262C214.877 61.5222 214.684 61.7892 214.554 62.1273C214.426 62.4654 214.362 62.8432 214.362 63.2608C214.362 63.6898 214.427 64.0662 214.558 64.3901C214.689 64.714 214.882 64.9668 215.137 65.1486C215.396 65.3304 215.714 65.4213 216.092 65.4213ZM221.572 69.0307C221.382 69.0307 221.208 69.0151 221.052 68.9838C220.896 68.9554 220.779 68.9242 220.703 68.8901L221.01 67.8461C221.243 67.9086 221.45 67.9355 221.632 67.927C221.814 67.9185 221.974 67.8503 222.113 67.7225C222.255 67.5946 222.38 67.3858 222.488 67.0961L222.646 66.6614L220.251 60.0307H221.615L223.272 65.1103H223.341L224.998 60.0307H226.366L223.669 67.4498C223.544 67.7907 223.385 68.079 223.191 68.3148C222.998 68.5534 222.768 68.7324 222.501 68.8517C222.234 68.9711 221.924 69.0307 221.572 69.0307ZM230.722 66.5762V65.6216L233.675 62.562C233.991 62.2296 234.251 61.9384 234.455 61.6884C234.663 61.4355 234.817 61.1955 234.92 60.9682C235.022 60.7409 235.073 60.4995 235.073 60.2438C235.073 59.954 235.005 59.704 234.869 59.4938C234.732 59.2807 234.546 59.1174 234.31 59.0037C234.075 58.8873 233.809 58.829 233.513 58.829C233.201 58.829 232.928 58.8929 232.695 59.0208C232.462 59.1486 232.283 59.329 232.158 59.562C232.033 59.7949 231.971 60.0676 231.971 60.3801H230.714C230.714 59.8489 230.836 59.3844 231.08 58.9867C231.325 58.589 231.66 58.2807 232.086 58.062C232.512 57.8404 232.996 57.7296 233.539 57.7296C234.087 57.7296 234.57 57.839 234.988 58.0577C235.408 58.2736 235.737 58.5691 235.972 58.9441C236.208 59.3162 236.326 59.7367 236.326 60.2054C236.326 60.5293 236.265 60.8461 236.143 61.1557C236.023 61.4654 235.815 61.8105 235.516 62.1912C235.218 62.5691 234.803 63.0279 234.272 63.5676L232.538 65.383V65.4469H236.467V66.5762H230.722Z" fill="#9FB0BF"/>
<path d="M24.5 140.576C24.5 136.158 28.0817 132.576 32.5 132.576H497.5V164.576H32.5C28.0817 164.576 24.5 160.994 24.5 156.576V140.576Z" fill="url(#paint2_linear_1041_1745)"/>
<path d="M24.5 141.076C24.5 136.658 28.0817 133.076 32.5 133.076H199.5V165.076H32.5C28.0817 165.076 24.5 161.494 24.5 157.076V141.076Z" fill="#20344B"/>
<path d="M34.5 154.416H46.5V142.416H34.5V154.416Z" fill="black"/>
<path d="M59.2188 146.142C59.1733 145.738 58.9858 145.426 58.6562 145.204C58.3267 144.98 57.9119 144.867 57.4119 144.867C57.054 144.867 56.7443 144.924 56.483 145.038C56.2216 145.149 56.0185 145.302 55.8736 145.498C55.7315 145.691 55.6605 145.911 55.6605 146.159C55.6605 146.366 55.7088 146.545 55.8054 146.695C55.9048 146.846 56.0341 146.972 56.1932 147.075C56.3551 147.174 56.5284 147.258 56.7131 147.326C56.8977 147.392 57.0753 147.445 57.2457 147.488L58.098 147.71C58.3764 147.778 58.6619 147.87 58.9545 147.987C59.2472 148.103 59.5185 148.257 59.7685 148.447C60.0185 148.637 60.2202 148.873 60.3736 149.154C60.5298 149.436 60.608 149.772 60.608 150.164C60.608 150.659 60.4801 151.097 60.2244 151.481C59.9716 151.865 59.6037 152.167 59.1207 152.389C58.6406 152.61 58.0597 152.721 57.3778 152.721C56.7244 152.721 56.1591 152.617 55.6818 152.41C55.2045 152.203 54.831 151.909 54.5611 151.528C54.2912 151.144 54.142 150.69 54.1136 150.164H55.4347C55.4602 150.48 55.5625 150.742 55.7415 150.953C55.9233 151.16 56.1548 151.315 56.4361 151.417C56.7202 151.517 57.0312 151.566 57.3693 151.566C57.7415 151.566 58.0724 151.508 58.3622 151.392C58.6548 151.272 58.8849 151.107 59.0526 150.897C59.2202 150.684 59.304 150.436 59.304 150.151C59.304 149.893 59.2301 149.681 59.0824 149.517C58.9375 149.352 58.7401 149.215 58.4901 149.107C58.2429 148.999 57.9631 148.904 57.6506 148.822L56.6193 148.541C55.9205 148.35 55.3665 148.07 54.9574 147.701C54.5511 147.332 54.348 146.843 54.348 146.235C54.348 145.732 54.4844 145.294 54.7571 144.919C55.0298 144.544 55.3991 144.252 55.8651 144.045C56.331 143.835 56.8565 143.73 57.4418 143.73C58.0327 143.73 58.554 143.833 59.0057 144.041C59.4602 144.248 59.8182 144.534 60.0795 144.897C60.3409 145.258 60.4773 145.673 60.4886 146.142H59.2188ZM65.1346 146.031V147.053H61.5593V146.031H65.1346ZM62.5181 144.463H63.7923V150.654C63.7923 150.901 63.8292 151.088 63.9031 151.213C63.9769 151.335 64.0721 151.419 64.1886 151.464C64.3079 151.507 64.4371 151.528 64.5763 151.528C64.6786 151.528 64.7681 151.521 64.8448 151.507C64.9215 151.492 64.9812 151.481 65.0238 151.472L65.2539 152.525C65.18 152.553 65.0749 152.582 64.9386 152.61C64.8022 152.642 64.6317 152.659 64.4272 152.661C64.092 152.667 63.7795 152.607 63.4897 152.482C63.1999 152.357 62.9656 152.164 62.7866 151.903C62.6076 151.642 62.5181 151.313 62.5181 150.919V144.463ZM66.544 152.576V146.031H67.7756V147.07H67.8438C67.9631 146.718 68.1733 146.441 68.4744 146.24C68.7784 146.035 69.1222 145.933 69.5057 145.933C69.5852 145.933 69.679 145.936 69.7869 145.941C69.8977 145.947 69.9844 145.954 70.0469 145.963V147.181C69.9957 147.167 69.9048 147.151 69.7741 147.134C69.6435 147.115 69.5128 147.105 69.3821 147.105C69.081 147.105 68.8125 147.169 68.5767 147.296C68.3438 147.421 68.1591 147.596 68.0227 147.82C67.8864 148.042 67.8182 148.295 67.8182 148.579V152.576H66.544ZM72.9957 152.721C72.581 152.721 72.206 152.644 71.8707 152.491C71.5355 152.335 71.2699 152.109 71.0739 151.813C70.8807 151.518 70.7841 151.156 70.7841 150.727C70.7841 150.357 70.8551 150.053 70.9972 149.815C71.1392 149.576 71.331 149.387 71.5724 149.248C71.8139 149.109 72.0838 149.004 72.3821 148.933C72.6804 148.862 72.9844 148.808 73.294 148.771C73.6861 148.725 74.0043 148.688 74.2486 148.66C74.4929 148.629 74.6705 148.579 74.7812 148.511C74.892 148.443 74.9474 148.332 74.9474 148.178V148.149C74.9474 147.776 74.8423 147.488 74.6321 147.284C74.4247 147.079 74.1151 146.977 73.7031 146.977C73.2741 146.977 72.9361 147.072 72.6889 147.262C72.4446 147.45 72.2756 147.659 72.1818 147.889L70.9844 147.616C71.1264 147.218 71.3338 146.897 71.6065 146.653C71.8821 146.406 72.1989 146.227 72.5568 146.116C72.9148 146.002 73.2912 145.945 73.6861 145.945C73.9474 145.945 74.2244 145.977 74.517 146.039C74.8125 146.099 75.0881 146.21 75.3438 146.372C75.6023 146.534 75.8139 146.765 75.9787 147.066C76.1435 147.365 76.2259 147.752 76.2259 148.23V152.576H74.9815V151.681H74.9304C74.848 151.846 74.7244 152.008 74.5597 152.167C74.3949 152.326 74.1832 152.458 73.9247 152.563C73.6662 152.669 73.3565 152.721 72.9957 152.721ZM73.2727 151.698C73.625 151.698 73.9261 151.629 74.1761 151.49C74.429 151.35 74.6207 151.169 74.7514 150.944C74.8849 150.717 74.9517 150.474 74.9517 150.215V149.372C74.9063 149.417 74.8182 149.46 74.6875 149.499C74.5597 149.536 74.4134 149.569 74.2486 149.597C74.0838 149.623 73.9233 149.647 73.767 149.67C73.6108 149.69 73.4801 149.707 73.375 149.721C73.1278 149.752 72.902 149.805 72.6974 149.879C72.4957 149.953 72.3338 150.059 72.2116 150.198C72.0923 150.335 72.0327 150.517 72.0327 150.744C72.0327 151.059 72.1491 151.298 72.3821 151.46C72.6151 151.619 72.9119 151.698 73.2727 151.698ZM80.9783 146.031V147.053H77.4031V146.031H80.9783ZM78.3619 144.463H79.636V150.654C79.636 150.901 79.6729 151.088 79.7468 151.213C79.8207 151.335 79.9158 151.419 80.0323 151.464C80.1516 151.507 80.2809 151.528 80.4201 151.528C80.5224 151.528 80.6119 151.521 80.6886 151.507C80.7653 151.492 80.8249 151.481 80.8675 151.472L81.0977 152.525C81.0238 152.553 80.9187 152.582 80.7823 152.61C80.646 152.642 80.4755 152.659 80.271 152.661C79.9357 152.667 79.6232 152.607 79.3335 152.482C79.0437 152.357 78.8093 152.164 78.6303 151.903C78.4513 151.642 78.3619 151.313 78.3619 150.919V144.463ZM85.1385 152.708C84.4936 152.708 83.9382 152.57 83.4723 152.295C83.0092 152.017 82.6513 151.626 82.3984 151.123C82.1484 150.617 82.0234 150.025 82.0234 149.346C82.0234 148.676 82.1484 148.085 82.3984 147.573C82.6513 147.062 83.0036 146.663 83.4553 146.376C83.9098 146.089 84.4411 145.945 85.049 145.945C85.4183 145.945 85.7763 146.007 86.1229 146.129C86.4695 146.251 86.7805 146.443 87.0561 146.704C87.3317 146.965 87.549 147.305 87.7081 147.722C87.8672 148.137 87.9467 148.642 87.9467 149.235V149.687H82.7436V148.732H86.6982C86.6982 148.397 86.63 148.1 86.4936 147.842C86.3572 147.58 86.1655 147.374 85.9183 147.224C85.674 147.073 85.3871 146.998 85.0575 146.998C84.6996 146.998 84.3871 147.086 84.12 147.262C83.8558 147.436 83.6513 147.663 83.5064 147.944C83.3643 148.222 83.2933 148.525 83.2933 148.852V149.597C83.2933 150.035 83.37 150.407 83.5234 150.714C83.6797 151.021 83.897 151.255 84.1754 151.417C84.4538 151.576 84.7791 151.656 85.1513 151.656C85.3928 151.656 85.6129 151.622 85.8118 151.553C86.0107 151.482 86.1825 151.377 86.3274 151.238C86.4723 151.099 86.5831 150.927 86.6598 150.722L87.8658 150.94C87.7692 151.295 87.5959 151.606 87.3459 151.873C87.0987 152.137 86.7876 152.343 86.4126 152.491C86.0405 152.636 85.6158 152.708 85.1385 152.708ZM92.1048 155.167C91.5849 155.167 91.1374 155.099 90.7624 154.963C90.3903 154.826 90.0863 154.646 89.8505 154.421C89.6147 154.197 89.4386 153.951 89.3221 153.684L90.4173 153.232C90.494 153.357 90.5962 153.49 90.7241 153.629C90.8548 153.771 91.0309 153.892 91.2525 153.991C91.4769 154.09 91.7653 154.14 92.1175 154.14C92.6005 154.14 92.9996 154.022 93.315 153.786C93.6303 153.553 93.788 153.181 93.788 152.67V151.383H93.707C93.6303 151.522 93.5195 151.677 93.3746 151.847C93.2326 152.018 93.0366 152.166 92.7866 152.291C92.5366 152.416 92.2113 152.478 91.8107 152.478C91.2937 152.478 90.8278 152.357 90.413 152.116C90.0011 151.872 89.6744 151.512 89.4329 151.038C89.1942 150.561 89.0749 149.974 89.0749 149.278C89.0749 148.582 89.1928 147.985 89.4286 147.488C89.6673 146.991 89.994 146.61 90.4087 146.346C90.8235 146.079 91.2937 145.945 91.8192 145.945C92.2255 145.945 92.5536 146.014 92.8036 146.15C93.0536 146.284 93.2482 146.44 93.3874 146.619C93.5295 146.798 93.6388 146.955 93.7156 147.092H93.8093V146.031H95.0579V152.721C95.0579 153.284 94.9272 153.745 94.6658 154.106C94.4045 154.467 94.0508 154.734 93.6048 154.907C93.1616 155.08 92.6616 155.167 92.1048 155.167ZM92.092 151.421C92.4585 151.421 92.7681 151.336 93.021 151.166C93.2766 150.992 93.4698 150.745 93.6005 150.424C93.734 150.1 93.8008 149.713 93.8008 149.261C93.8008 148.82 93.7354 148.433 93.6048 148.097C93.4741 147.762 93.2823 147.501 93.0295 147.313C92.7766 147.123 92.4641 147.028 92.092 147.028C91.7085 147.028 91.3888 147.127 91.1332 147.326C90.8775 147.522 90.6843 147.789 90.5536 148.127C90.4258 148.465 90.3619 148.843 90.3619 149.261C90.3619 149.69 90.4272 150.066 90.5579 150.39C90.6886 150.714 90.8817 150.967 91.1374 151.149C91.396 151.33 91.7141 151.421 92.092 151.421ZM97.5721 155.031C97.3817 155.031 97.2085 155.015 97.0522 154.984C96.896 154.955 96.7795 154.924 96.7028 154.89L97.0096 153.846C97.2425 153.909 97.4499 153.936 97.6317 153.927C97.8136 153.919 97.9741 153.85 98.1133 153.722C98.2553 153.595 98.3803 153.386 98.4883 153.096L98.646 152.661L96.2511 146.031H97.6147L99.2724 151.11H99.3406L100.998 146.031H102.366L99.6687 153.45C99.5437 153.791 99.3846 154.079 99.1914 154.315C98.9982 154.553 98.7681 154.732 98.5011 154.852C98.234 154.971 97.9244 155.031 97.5721 155.031ZM106.539 150.872V149.806L110.31 143.849H111.15V145.417H110.617L107.92 149.687V149.755H113.089V150.872H106.539ZM110.677 152.576V150.548L110.685 150.062V143.849H111.934V152.576H110.677Z" fill="#9FB0BF"/>
<path d="M291.5 98.5762C291.5 94.1579 295.082 90.5762 299.5 90.5762H497.5V122.576H299.5C295.082 122.576 291.5 118.994 291.5 114.576V98.5762Z" fill="url(#paint3_linear_1041_1745)"/>
<path d="M291.5 99.0762C291.5 94.6579 295.082 91.0762 299.5 91.0762H346.5V123.076H299.5C295.082 123.076 291.5 119.494 291.5 115.076V99.0762Z" fill="#20344B"/>
<path d="M302.5 111.416H314.5V99.4162H302.5V111.416Z" fill="black"/>
<path d="M327.219 103.142C327.173 102.738 326.986 102.426 326.656 102.204C326.327 101.98 325.912 101.867 325.412 101.867C325.054 101.867 324.744 101.924 324.483 102.038C324.222 102.149 324.018 102.302 323.874 102.498C323.732 102.691 323.661 102.911 323.661 103.159C323.661 103.366 323.709 103.545 323.805 103.695C323.905 103.846 324.034 103.972 324.193 104.075C324.355 104.174 324.528 104.258 324.713 104.326C324.898 104.392 325.075 104.445 325.246 104.488L326.098 104.71C326.376 104.778 326.662 104.87 326.955 104.987C327.247 105.103 327.518 105.257 327.768 105.447C328.018 105.637 328.22 105.873 328.374 106.154C328.53 106.436 328.608 106.772 328.608 107.164C328.608 107.659 328.48 108.097 328.224 108.481C327.972 108.865 327.604 109.167 327.121 109.389C326.641 109.61 326.06 109.721 325.378 109.721C324.724 109.721 324.159 109.617 323.682 109.41C323.205 109.203 322.831 108.909 322.561 108.528C322.291 108.144 322.142 107.69 322.114 107.164H323.435C323.46 107.48 323.563 107.742 323.741 107.953C323.923 108.16 324.155 108.315 324.436 108.417C324.72 108.517 325.031 108.566 325.369 108.566C325.741 108.566 326.072 108.508 326.362 108.392C326.655 108.272 326.885 108.107 327.053 107.897C327.22 107.684 327.304 107.436 327.304 107.151C327.304 106.893 327.23 106.681 327.082 106.517C326.938 106.352 326.74 106.215 326.49 106.107C326.243 105.999 325.963 105.904 325.651 105.822L324.619 105.541C323.92 105.35 323.366 105.07 322.957 104.701C322.551 104.332 322.348 103.843 322.348 103.235C322.348 102.732 322.484 102.294 322.757 101.919C323.03 101.544 323.399 101.252 323.865 101.045C324.331 100.835 324.857 100.73 325.442 100.73C326.033 100.73 326.554 100.833 327.006 101.041C327.46 101.248 327.818 101.534 328.08 101.897C328.341 102.258 328.477 102.673 328.489 103.142H327.219ZM333.135 103.031V104.053H329.559V103.031H333.135ZM330.518 101.463H331.792V107.654C331.792 107.901 331.829 108.088 331.903 108.213C331.977 108.335 332.072 108.419 332.189 108.464C332.308 108.507 332.437 108.528 332.576 108.528C332.679 108.528 332.768 108.521 332.845 108.507C332.922 108.492 332.981 108.481 333.024 108.472L333.254 109.525C333.18 109.553 333.075 109.582 332.939 109.61C332.802 109.642 332.632 109.659 332.427 109.661C332.092 109.667 331.779 109.607 331.49 109.482C331.2 109.357 330.966 109.164 330.787 108.903C330.608 108.642 330.518 108.313 330.518 107.919V101.463ZM334.544 109.576V103.031H335.776V104.07H335.844C335.963 103.718 336.173 103.441 336.474 103.24C336.778 103.035 337.122 102.933 337.506 102.933C337.585 102.933 337.679 102.936 337.787 102.941C337.898 102.947 337.984 102.954 338.047 102.963V104.181C337.996 104.167 337.905 104.151 337.774 104.134C337.643 104.115 337.513 104.105 337.382 104.105C337.081 104.105 336.813 104.169 336.577 104.296C336.344 104.421 336.159 104.596 336.023 104.82C335.886 105.042 335.818 105.295 335.818 105.579V109.576H334.544ZM340.996 109.721C340.581 109.721 340.206 109.644 339.871 109.491C339.536 109.335 339.27 109.109 339.074 108.813C338.881 108.518 338.784 108.156 338.784 107.727C338.784 107.357 338.855 107.053 338.997 106.815C339.139 106.576 339.331 106.387 339.572 106.248C339.814 106.109 340.084 106.004 340.382 105.933C340.68 105.862 340.984 105.808 341.294 105.771C341.686 105.725 342.004 105.688 342.249 105.66C342.493 105.629 342.67 105.579 342.781 105.511C342.892 105.443 342.947 105.332 342.947 105.178V105.149C342.947 104.776 342.842 104.488 342.632 104.284C342.425 104.079 342.115 103.977 341.703 103.977C341.274 103.977 340.936 104.072 340.689 104.262C340.445 104.45 340.276 104.659 340.182 104.889L338.984 104.616C339.126 104.218 339.334 103.897 339.607 103.653C339.882 103.406 340.199 103.227 340.557 103.116C340.915 103.002 341.291 102.945 341.686 102.945C341.947 102.945 342.224 102.977 342.517 103.039C342.813 103.099 343.088 103.21 343.344 103.372C343.602 103.534 343.814 103.765 343.979 104.066C344.143 104.365 344.226 104.752 344.226 105.23V109.576H342.982V108.681H342.93C342.848 108.846 342.724 109.008 342.56 109.167C342.395 109.326 342.183 109.458 341.925 109.563C341.666 109.669 341.357 109.721 340.996 109.721ZM341.273 108.698C341.625 108.698 341.926 108.629 342.176 108.49C342.429 108.35 342.621 108.169 342.751 107.944C342.885 107.717 342.952 107.474 342.952 107.215V106.372C342.906 106.417 342.818 106.46 342.688 106.499C342.56 106.536 342.413 106.569 342.249 106.597C342.084 106.623 341.923 106.647 341.767 106.67C341.611 106.69 341.48 106.707 341.375 106.721C341.128 106.752 340.902 106.805 340.697 106.879C340.496 106.953 340.334 107.059 340.212 107.198C340.092 107.335 340.033 107.517 340.033 107.744C340.033 108.059 340.149 108.298 340.382 108.46C340.615 108.619 340.912 108.698 341.273 108.698ZM348.978 103.031V104.053H345.403V103.031H348.978ZM346.362 101.463H347.636V107.654C347.636 107.901 347.673 108.088 347.747 108.213C347.821 108.335 347.916 108.419 348.032 108.464C348.152 108.507 348.281 108.528 348.42 108.528C348.522 108.528 348.612 108.521 348.689 108.507C348.765 108.492 348.825 108.481 348.868 108.472L349.098 109.525C349.024 109.553 348.919 109.582 348.782 109.61C348.646 109.642 348.475 109.659 348.271 109.661C347.936 109.667 347.623 109.607 347.333 109.482C347.044 109.357 346.809 109.164 346.63 108.903C346.451 108.642 346.362 108.313 346.362 107.919V101.463ZM353.138 109.708C352.494 109.708 351.938 109.57 351.472 109.295C351.009 109.017 350.651 108.626 350.398 108.123C350.148 107.617 350.023 107.025 350.023 106.346C350.023 105.676 350.148 105.085 350.398 104.573C350.651 104.062 351.004 103.663 351.455 103.376C351.91 103.089 352.441 102.945 353.049 102.945C353.418 102.945 353.776 103.007 354.123 103.129C354.469 103.251 354.781 103.443 355.056 103.704C355.332 103.965 355.549 104.305 355.708 104.722C355.867 105.137 355.947 105.642 355.947 106.235V106.687H350.744V105.732H354.698C354.698 105.397 354.63 105.1 354.494 104.842C354.357 104.58 354.165 104.374 353.918 104.224C353.674 104.073 353.387 103.998 353.058 103.998C352.7 103.998 352.387 104.086 352.12 104.262C351.856 104.436 351.651 104.663 351.506 104.944C351.364 105.222 351.293 105.525 351.293 105.852V106.597C351.293 107.035 351.37 107.407 351.523 107.714C351.68 108.021 351.897 108.255 352.175 108.417C352.454 108.576 352.779 108.656 353.151 108.656C353.393 108.656 353.613 108.622 353.812 108.553C354.011 108.482 354.183 108.377 354.327 108.238C354.472 108.099 354.583 107.927 354.66 107.722L355.866 107.94C355.769 108.295 355.596 108.606 355.346 108.873C355.099 109.137 354.788 109.343 354.413 109.491C354.04 109.636 353.616 109.708 353.138 109.708ZM360.105 112.167C359.585 112.167 359.137 112.099 358.762 111.963C358.39 111.826 358.086 111.646 357.85 111.421C357.615 111.197 357.439 110.951 357.322 110.684L358.417 110.232C358.494 110.357 358.596 110.49 358.724 110.629C358.855 110.771 359.031 110.892 359.252 110.991C359.477 111.09 359.765 111.14 360.118 111.14C360.6 111.14 361 111.022 361.315 110.786C361.63 110.553 361.788 110.181 361.788 109.67V108.383H361.707C361.63 108.522 361.52 108.677 361.375 108.847C361.233 109.018 361.037 109.166 360.787 109.291C360.537 109.416 360.211 109.478 359.811 109.478C359.294 109.478 358.828 109.357 358.413 109.116C358.001 108.872 357.674 108.512 357.433 108.038C357.194 107.561 357.075 106.974 357.075 106.278C357.075 105.582 357.193 104.985 357.429 104.488C357.667 103.991 357.994 103.61 358.409 103.346C358.824 103.079 359.294 102.945 359.819 102.945C360.225 102.945 360.554 103.014 360.804 103.15C361.054 103.284 361.248 103.44 361.387 103.619C361.529 103.798 361.639 103.955 361.716 104.092H361.809V103.031H363.058V109.721C363.058 110.284 362.927 110.745 362.666 111.106C362.404 111.467 362.051 111.734 361.605 111.907C361.162 112.08 360.662 112.167 360.105 112.167ZM360.092 108.421C360.458 108.421 360.768 108.336 361.021 108.166C361.277 107.992 361.47 107.745 361.6 107.424C361.734 107.1 361.801 106.713 361.801 106.261C361.801 105.82 361.735 105.433 361.605 105.097C361.474 104.762 361.282 104.501 361.029 104.313C360.777 104.123 360.464 104.028 360.092 104.028C359.708 104.028 359.389 104.127 359.133 104.326C358.877 104.522 358.684 104.789 358.554 105.127C358.426 105.465 358.362 105.843 358.362 106.261C358.362 106.69 358.427 107.066 358.558 107.39C358.689 107.714 358.882 107.967 359.137 108.149C359.396 108.33 359.714 108.421 360.092 108.421ZM365.572 112.031C365.382 112.031 365.208 112.015 365.052 111.984C364.896 111.955 364.779 111.924 364.703 111.89L365.01 110.846C365.243 110.909 365.45 110.936 365.632 110.927C365.814 110.919 365.974 110.85 366.113 110.722C366.255 110.595 366.38 110.386 366.488 110.096L366.646 109.661L364.251 103.031H365.615L367.272 108.11H367.341L368.998 103.031H370.366L367.669 110.45C367.544 110.791 367.385 111.079 367.191 111.315C366.998 111.553 366.768 111.732 366.501 111.852C366.234 111.971 365.924 112.031 365.572 112.031ZM377.761 109.695C377.175 109.695 376.653 109.595 376.192 109.393C375.735 109.191 375.373 108.911 375.106 108.553C374.842 108.193 374.7 107.775 374.68 107.301H376.018C376.035 107.559 376.121 107.784 376.278 107.974C376.437 108.161 376.644 108.306 376.9 108.409C377.156 108.511 377.44 108.562 377.752 108.562C378.096 108.562 378.4 108.502 378.664 108.383C378.931 108.264 379.14 108.097 379.29 107.884C379.441 107.669 379.516 107.42 379.516 107.139C379.516 106.846 379.441 106.589 379.29 106.367C379.143 106.143 378.925 105.967 378.638 105.839C378.354 105.711 378.011 105.647 377.607 105.647H376.87V104.573H377.607C377.931 104.573 378.215 104.515 378.46 104.399C378.707 104.282 378.9 104.12 379.039 103.913C379.178 103.703 379.248 103.457 379.248 103.176C379.248 102.906 379.187 102.671 379.065 102.472C378.945 102.271 378.775 102.113 378.553 101.999C378.335 101.886 378.076 101.829 377.778 101.829C377.494 101.829 377.228 101.882 376.981 101.987C376.737 102.089 376.538 102.237 376.384 102.43C376.231 102.62 376.148 102.849 376.137 103.116H374.863C374.877 102.644 375.016 102.23 375.281 101.872C375.548 101.514 375.9 101.234 376.337 101.032C376.775 100.83 377.261 100.73 377.795 100.73C378.354 100.73 378.837 100.839 379.244 101.058C379.653 101.274 379.968 101.562 380.19 101.923C380.414 102.284 380.525 102.678 380.522 103.107C380.525 103.596 380.388 104.011 380.113 104.352C379.84 104.693 379.477 104.921 379.022 105.038V105.106C379.602 105.194 380.05 105.424 380.369 105.796C380.69 106.169 380.849 106.63 380.846 107.181C380.849 107.661 380.715 108.092 380.445 108.472C380.178 108.853 379.813 109.153 379.35 109.372C378.887 109.588 378.357 109.695 377.761 109.695Z" fill="#9FB0BF"/>
<line x1="497.5" y1="42.0762" x2="152.5" y2="42.0761" stroke="url(#paint4_linear_1041_1745)"/>
<line x1="497.5" y1="85.0762" x2="291.5" y2="85.0762" stroke="url(#paint5_linear_1041_1745)"/>
<line x1="497.5" y1="128.076" x2="24.5" y2="128.076" stroke="url(#paint6_linear_1041_1745)"/>
<defs>
<linearGradient id="paint0_linear_1041_1745" x1="497.5" y1="19.5762" x2="210.5" y2="19.5762" gradientUnits="userSpaceOnUse">
<stop stop-color="#142130"/>
<stop offset="1" stop-color="#1F334B"/>
</linearGradient>
<linearGradient id="paint1_linear_1041_1745" x1="497.5" y1="62.5762" x2="147.5" y2="62.5762" gradientUnits="userSpaceOnUse">
<stop stop-color="#142130"/>
<stop offset="1" stop-color="#1F334B"/>
</linearGradient>
<linearGradient id="paint2_linear_1041_1745" x1="497.5" y1="148.576" x2="24.5" y2="148.576" gradientUnits="userSpaceOnUse">
<stop stop-color="#142130"/>
<stop offset="1" stop-color="#1F334B"/>
</linearGradient>
<linearGradient id="paint3_linear_1041_1745" x1="497.5" y1="106.576" x2="291.5" y2="106.576" gradientUnits="userSpaceOnUse">
<stop stop-color="#142130"/>
<stop offset="1" stop-color="#1F334B"/>
</linearGradient>
<linearGradient id="paint4_linear_1041_1745" x1="152.5" y1="41.0761" x2="497.5" y2="41.0762" gradientUnits="userSpaceOnUse">
<stop stop-color="#142130"/>
<stop offset="1" stop-color="#1F334B"/>
</linearGradient>
<linearGradient id="paint5_linear_1041_1745" x1="291.5" y1="84.0762" x2="497.5" y2="84.0762" gradientUnits="userSpaceOnUse">
<stop stop-color="#142130"/>
<stop offset="1" stop-color="#1F334B"/>
</linearGradient>
<linearGradient id="paint6_linear_1041_1745" x1="24.5" y1="127.076" x2="497.5" y2="127.076" gradientUnits="userSpaceOnUse">
<stop stop-color="#142130"/>
<stop offset="1" stop-color="#1F334B"/>
</linearGradient>
</defs>
</svg>
