<svg width="310" height="181" viewBox="0 0 310 181" fill="none" xmlns="http://www.w3.org/2000/svg">
<g clip-path="url(#clip0_651_673)">
<rect width="309.333" height="180" transform="translate(0.666992 0.828369)" fill="#142130"/>
<rect x="1" y="14" width="103" height="14" rx="7" fill="url(#paint0_linear_651_673)"/>
<rect x="254.333" y="11" width="55.6667" height="20" rx="10" fill="#273B52"/>
<path d="M264.333 24.3333L271 17.6666M271 17.6666H266M271 17.6666V22.6666" stroke="#3AD669" stroke-width="1.25" stroke-linecap="round" stroke-linejoin="round"/>
<path d="M282.303 26.1326C281.839 26.1294 281.386 26.0489 280.944 25.8911C280.502 25.7301 280.104 25.4697 279.751 25.1098C279.397 24.7468 279.116 24.2655 278.908 23.6657C278.7 23.0628 278.597 22.3163 278.6 21.4261C278.6 20.596 278.689 19.8557 278.865 19.2055C279.042 18.5552 279.296 18.006 279.628 17.5578C279.959 17.1064 280.358 16.7623 280.826 16.5256C281.296 16.2888 281.821 16.1705 282.402 16.1705C283.012 16.1705 283.551 16.2904 284.022 16.5303C284.495 16.7702 284.877 17.0985 285.167 17.5152C285.458 17.9287 285.638 18.3958 285.707 18.9167H283.979C283.891 18.5442 283.709 18.2475 283.434 18.0265C283.163 17.8024 282.819 17.6903 282.402 17.6903C281.73 17.6903 281.212 17.9823 280.849 18.5663C280.489 19.1503 280.308 19.952 280.305 20.9716H280.371C280.526 20.6938 280.726 20.4555 280.972 20.2566C281.219 20.0578 281.496 19.9047 281.806 19.7973C282.118 19.6869 282.448 19.6316 282.795 19.6316C283.363 19.6316 283.873 19.7674 284.325 20.0388C284.779 20.3103 285.139 20.6843 285.404 21.161C285.669 21.6345 285.8 22.1774 285.797 22.7898C285.8 23.4274 285.655 24.0003 285.362 24.5085C285.068 25.0136 284.659 25.4113 284.135 25.7017C283.611 25.9921 283 26.1357 282.303 26.1326ZM282.293 24.7121C282.637 24.7121 282.945 24.6285 283.217 24.4612C283.488 24.2939 283.703 24.0682 283.861 23.7841C284.018 23.5 284.096 23.1812 284.093 22.8277C284.096 22.4804 284.02 22.1664 283.865 21.8854C283.714 21.6045 283.504 21.3819 283.236 21.2178C282.967 21.0537 282.661 20.9716 282.317 20.9716C282.061 20.9716 281.823 21.0205 281.602 21.1184C281.381 21.2162 281.189 21.352 281.024 21.5256C280.86 21.696 280.731 21.8949 280.636 22.1222C280.545 22.3463 280.497 22.5862 280.494 22.8419C280.497 23.1796 280.576 23.4905 280.731 23.7746C280.886 24.0587 281.099 24.286 281.37 24.4564C281.642 24.6269 281.949 24.7121 282.293 24.7121ZM287.222 24.2008V22.804L291.337 16.303H292.502V18.2917H291.791L289.022 22.6809V22.7566H294.765V24.2008H287.222ZM291.848 26V23.7746L291.867 23.1496V16.303H293.524V26H291.848ZM301.462 24.1818V23.6705C301.462 23.2948 301.541 22.9492 301.699 22.6335C301.86 22.3179 302.094 22.0638 302.4 21.8712C302.706 21.6787 303.077 21.5824 303.513 21.5824C303.961 21.5824 304.336 21.6787 304.64 21.8712C304.943 22.0606 305.171 22.3131 305.326 22.6288C305.484 22.9444 305.563 23.2917 305.563 23.6705V24.1818C305.563 24.5574 305.484 24.9031 305.326 25.2188C305.168 25.5344 304.936 25.7885 304.63 25.9811C304.327 26.1736 303.955 26.2699 303.513 26.2699C303.071 26.2699 302.697 26.1736 302.39 25.9811C302.084 25.7885 301.852 25.5344 301.694 25.2188C301.54 24.9031 301.462 24.5574 301.462 24.1818ZM302.698 23.6705V24.1818C302.698 24.4312 302.758 24.66 302.878 24.8684C302.998 25.0767 303.21 25.1809 303.513 25.1809C303.819 25.1809 304.029 25.0783 304.142 24.8731C304.259 24.6648 304.318 24.4343 304.318 24.1818V23.6705C304.318 23.4179 304.262 23.1875 304.152 22.9792C304.041 22.7677 303.828 22.6619 303.513 22.6619C303.216 22.6619 303.006 22.7677 302.883 22.9792C302.76 23.1875 302.698 23.4179 302.698 23.6705ZM296.533 18.6326V18.1212C296.533 17.7424 296.614 17.3952 296.775 17.0795C296.936 16.7639 297.169 16.5114 297.476 16.322C297.782 16.1294 298.153 16.0331 298.588 16.0331C299.033 16.0331 299.407 16.1294 299.711 16.322C300.017 16.5114 300.247 16.7639 300.402 17.0795C300.556 17.3952 300.634 17.7424 300.634 18.1212V18.6326C300.634 19.0114 300.555 19.3586 300.397 19.6742C300.242 19.9867 300.012 20.2377 299.706 20.4271C299.4 20.6165 299.027 20.7112 298.588 20.7112C298.143 20.7112 297.768 20.6165 297.461 20.4271C297.158 20.2377 296.928 19.9852 296.77 19.6695C296.612 19.3539 296.533 19.0082 296.533 18.6326ZM297.779 18.1212V18.6326C297.779 18.8851 297.837 19.1155 297.954 19.3239C298.074 19.529 298.285 19.6316 298.588 19.6316C298.891 19.6316 299.1 19.529 299.213 19.3239C299.33 19.1155 299.389 18.8851 299.389 18.6326V18.1212C299.389 17.8687 299.333 17.6383 299.223 17.4299C299.112 17.2184 298.901 17.1127 298.588 17.1127C298.288 17.1127 298.079 17.2184 297.959 17.4299C297.839 17.6414 297.779 17.8718 297.779 18.1212ZM297.073 26L303.74 16.303H304.924L298.257 26H297.073Z" fill="#C2D0E0"/>
<line x1="1.5" y1="47.5" x2="456.5" y2="47.5" stroke="#1C2C3E" stroke-linecap="round"/>
<line x1="1.5" y1="66.6" x2="456.5" y2="66.6" stroke="#1C2C3E" stroke-linecap="round"/>
<line x1="1.5" y1="83.2" x2="456.5" y2="83.2" stroke="#1C2C3E" stroke-linecap="round"/>
<line x1="1.5" y1="99.8" x2="456.5" y2="99.8" stroke="#1C2C3E" stroke-linecap="round"/>
<line x1="1.5" y1="116.4" x2="456.5" y2="116.4" stroke="#1C2C3E" stroke-linecap="round"/>
<line x1="1.5" y1="133" x2="456.5" y2="133" stroke="#1C2C3E" stroke-linecap="round"/>
<path d="M12.1506 145.182H13.0256V149.307C13.0256 149.68 12.9517 149.999 12.804 150.264C12.6581 150.529 12.4527 150.732 12.1875 150.872C11.9223 151.01 11.6117 151.08 11.2557 151.08C10.928 151.08 10.6335 151.02 10.3722 150.901C10.1127 150.781 9.9072 150.608 9.75568 150.381C9.60606 150.152 9.53125 149.873 9.53125 149.545H10.4034C10.4034 149.706 10.4403 149.846 10.5142 149.963C10.59 150.08 10.6932 150.172 10.8239 150.239C10.9564 150.303 11.108 150.335 11.2784 150.335C11.464 150.335 11.6212 150.296 11.75 150.219C11.8807 150.139 11.9801 150.023 12.0483 149.869C12.1165 149.716 12.1506 149.528 12.1506 149.307V145.182ZM15.505 151.097C15.2285 151.097 14.9785 151.045 14.755 150.943C14.5315 150.839 14.3544 150.688 14.2237 150.491C14.0949 150.295 14.0305 150.053 14.0305 149.767C14.0305 149.521 14.0779 149.318 14.1726 149.159C14.2673 149 14.3951 148.874 14.5561 148.781C14.7171 148.688 14.897 148.618 15.0959 148.571C15.2947 148.524 15.4974 148.488 15.7038 148.463C15.9652 148.433 16.1773 148.408 16.3402 148.389C16.5031 148.368 16.6214 148.335 16.6953 148.29C16.7692 148.244 16.8061 148.17 16.8061 148.068V148.048C16.8061 147.8 16.736 147.608 16.5959 147.472C16.4576 147.335 16.2512 147.267 15.9766 147.267C15.6906 147.267 15.4652 147.33 15.3004 147.457C15.1375 147.582 15.0249 147.722 14.9624 147.875L14.1641 147.693C14.2588 147.428 14.397 147.214 14.5788 147.051C14.7625 146.886 14.9737 146.767 15.2124 146.693C15.451 146.617 15.7019 146.58 15.9652 146.58C16.1394 146.58 16.3241 146.6 16.5192 146.642C16.7161 146.682 16.8999 146.756 17.0703 146.864C17.2427 146.972 17.3838 147.126 17.4936 147.327C17.6035 147.526 17.6584 147.784 17.6584 148.102V151H16.8288V150.403H16.7947C16.7398 150.513 16.6574 150.621 16.5476 150.727C16.4377 150.833 16.2966 150.921 16.1243 150.991C15.9519 151.062 15.7455 151.097 15.505 151.097ZM15.6896 150.415C15.9245 150.415 16.1252 150.368 16.2919 150.276C16.4605 150.183 16.5883 150.062 16.6754 149.912C16.7644 149.76 16.8089 149.598 16.8089 149.426V148.864C16.7786 148.894 16.7199 148.922 16.6328 148.949C16.5476 148.973 16.45 148.995 16.3402 149.014C16.2304 149.031 16.1233 149.047 16.0192 149.062C15.915 149.076 15.8279 149.087 15.7578 149.097C15.593 149.117 15.4425 149.152 15.3061 149.202C15.1716 149.251 15.0637 149.322 14.9822 149.415C14.9027 149.506 14.8629 149.627 14.8629 149.778C14.8629 149.989 14.9406 150.148 15.0959 150.256C15.2512 150.362 15.4491 150.415 15.6896 150.415ZM19.6392 148.409V151H18.7898V146.636H19.6051V147.347H19.6591C19.7595 147.116 19.9167 146.93 20.1307 146.79C20.3466 146.65 20.6184 146.58 20.946 146.58C21.2434 146.58 21.5038 146.642 21.7273 146.767C21.9508 146.89 22.1241 147.074 22.2472 147.318C22.3703 147.562 22.4318 147.865 22.4318 148.224V151H21.5824V148.327C21.5824 148.01 21.5 147.763 21.3352 147.585C21.1705 147.405 20.9441 147.315 20.6562 147.315C20.4593 147.315 20.2841 147.358 20.1307 147.443C19.9792 147.528 19.8589 147.653 19.7699 147.818C19.6828 147.981 19.6392 148.178 19.6392 148.409Z" fill="#556578"/>
<path d="M48.3873 151V145.182H51.9952V145.938H49.2651V147.71H51.7367V148.463H49.2651V151H48.3873ZM54.5669 151.088C54.137 151.088 53.7667 150.996 53.4561 150.812C53.1474 150.627 52.9088 150.366 52.7402 150.031C52.5736 149.694 52.4902 149.299 52.4902 148.847C52.4902 148.4 52.5736 148.006 52.7402 147.665C52.9088 147.324 53.1436 147.058 53.4448 146.866C53.7478 146.675 54.102 146.58 54.5073 146.58C54.7535 146.58 54.9921 146.62 55.2232 146.702C55.4542 146.783 55.6616 146.911 55.8453 147.085C56.0291 147.259 56.1739 147.486 56.28 147.764C56.3861 148.041 56.4391 148.377 56.4391 148.773V149.074H52.9703V148.438H55.6067C55.6067 148.214 55.5613 148.016 55.4703 147.844C55.3794 147.67 55.2516 147.532 55.0868 147.432C54.9239 147.331 54.7327 147.281 54.513 147.281C54.2743 147.281 54.066 147.34 53.888 147.457C53.7118 147.573 53.5755 147.724 53.4789 147.912C53.3842 148.098 53.3368 148.299 53.3368 148.517V149.014C53.3368 149.306 53.388 149.554 53.4902 149.759C53.5944 149.963 53.7393 150.119 53.9249 150.227C54.1105 150.333 54.3274 150.386 54.5755 150.386C54.7364 150.386 54.8832 150.364 55.0158 150.318C55.1484 150.271 55.263 150.201 55.3596 150.108C55.4561 150.015 55.53 149.901 55.5811 149.764L56.3851 149.909C56.3207 150.146 56.2052 150.353 56.0385 150.531C55.8738 150.707 55.6664 150.845 55.4164 150.943C55.1683 151.04 54.8851 151.088 54.5669 151.088ZM57.4498 151V145.182H58.2992V147.344H58.3503C58.3996 147.253 58.4706 147.148 58.5634 147.028C58.6562 146.909 58.785 146.805 58.9498 146.716C59.1145 146.625 59.3323 146.58 59.6032 146.58C59.9554 146.58 60.2698 146.669 60.5463 146.847C60.8229 147.025 61.0397 147.281 61.1969 147.616C61.356 147.952 61.4355 148.355 61.4355 148.827C61.4355 149.298 61.3569 149.703 61.1998 150.04C61.0426 150.375 60.8266 150.634 60.552 150.815C60.2774 150.995 59.964 151.085 59.6117 151.085C59.3465 151.085 59.1297 151.041 58.9611 150.952C58.7944 150.863 58.6638 150.759 58.5691 150.639C58.4744 150.52 58.4015 150.414 58.3503 150.321H58.2793V151H57.4498ZM58.2821 148.818C58.2821 149.125 58.3266 149.394 58.4157 149.625C58.5047 149.856 58.6335 150.037 58.802 150.168C58.9706 150.296 59.177 150.361 59.4213 150.361C59.6751 150.361 59.8873 150.294 60.0577 150.159C60.2282 150.023 60.3569 149.838 60.4441 149.605C60.5331 149.372 60.5776 149.11 60.5776 148.818C60.5776 148.53 60.534 148.272 60.4469 148.043C60.3617 147.813 60.2329 147.633 60.0605 147.5C59.8901 147.367 59.677 147.301 59.4213 147.301C59.1751 147.301 58.9668 147.365 58.7963 147.491C58.6278 147.618 58.4999 147.795 58.4128 148.023C58.3257 148.25 58.2821 148.515 58.2821 148.818Z" fill="#556578"/>
<path d="M86.4712 145.182H87.5366L89.3888 149.705H89.457L91.3093 145.182H92.3746V151H91.5394V146.79H91.4854L89.7695 150.991H89.0763L87.3604 146.787H87.3065V151H86.4712V145.182ZM94.8526 151.097C94.5761 151.097 94.3261 151.045 94.1026 150.943C93.8791 150.839 93.7021 150.688 93.5714 150.491C93.4426 150.295 93.3782 150.053 93.3782 149.767C93.3782 149.521 93.4255 149.318 93.5202 149.159C93.6149 149 93.7428 148.874 93.9038 148.781C94.0647 148.688 94.2447 148.618 94.4435 148.571C94.6424 148.524 94.8451 148.488 95.0515 148.463C95.3129 148.433 95.525 148.408 95.6879 148.389C95.8507 148.368 95.9691 148.335 96.043 148.29C96.1168 148.244 96.1538 148.17 96.1538 148.068V148.048C96.1538 147.8 96.0837 147.608 95.9435 147.472C95.8053 147.335 95.5988 147.267 95.3242 147.267C95.0382 147.267 94.8129 147.33 94.6481 147.457C94.4852 147.582 94.3725 147.722 94.31 147.875L93.5117 147.693C93.6064 147.428 93.7447 147.214 93.9265 147.051C94.1102 146.886 94.3214 146.767 94.56 146.693C94.7987 146.617 95.0496 146.58 95.3129 146.58C95.4871 146.58 95.6718 146.6 95.8668 146.642C96.0638 146.682 96.2475 146.756 96.418 146.864C96.5903 146.972 96.7314 147.126 96.8413 147.327C96.9511 147.526 97.006 147.784 97.006 148.102V151H96.1765V150.403H96.1424C96.0875 150.513 96.0051 150.621 95.8952 150.727C95.7854 150.833 95.6443 150.921 95.4719 150.991C95.2996 151.062 95.0932 151.097 94.8526 151.097ZM95.0373 150.415C95.2721 150.415 95.4729 150.368 95.6396 150.276C95.8081 150.183 95.936 150.062 96.0231 149.912C96.1121 149.76 96.1566 149.598 96.1566 149.426V148.864C96.1263 148.894 96.0676 148.922 95.9805 148.949C95.8952 148.973 95.7977 148.995 95.6879 149.014C95.578 149.031 95.471 149.047 95.3668 149.062C95.2627 149.076 95.1755 149.087 95.1055 149.097C94.9407 149.117 94.7901 149.152 94.6538 149.202C94.5193 149.251 94.4113 149.322 94.3299 149.415C94.2504 149.506 94.2106 149.627 94.2106 149.778C94.2106 149.989 94.2882 150.148 94.4435 150.256C94.5988 150.362 94.7968 150.415 95.0373 150.415ZM98.1374 151V146.636H98.9585V147.33H99.0039C99.0835 147.095 99.2236 146.91 99.4244 146.776C99.627 146.639 99.8562 146.571 100.112 146.571C100.165 146.571 100.227 146.573 100.299 146.577C100.373 146.58 100.431 146.585 100.473 146.591V147.403C100.439 147.394 100.378 147.384 100.291 147.372C100.204 147.359 100.117 147.352 100.029 147.352C99.8287 147.352 99.6497 147.395 99.4925 147.48C99.3372 147.563 99.2141 147.68 99.1232 147.83C99.0323 147.977 98.9869 148.146 98.9869 148.335V151H98.1374Z" fill="#556578"/>
<path d="M125.975 151H125.044L127.137 145.182H128.152L130.245 151H129.313L127.669 146.239H127.623L125.975 151ZM126.132 148.722H129.154V149.46H126.132V148.722ZM131.017 152.636V146.636H131.847V147.344H131.918C131.967 147.253 132.038 147.148 132.131 147.028C132.224 146.909 132.353 146.805 132.517 146.716C132.682 146.625 132.9 146.58 133.171 146.58C133.523 146.58 133.837 146.669 134.114 146.847C134.39 147.025 134.607 147.281 134.764 147.616C134.924 147.952 135.003 148.355 135.003 148.827C135.003 149.298 134.925 149.703 134.767 150.04C134.61 150.375 134.394 150.634 134.12 150.815C133.845 150.995 133.532 151.085 133.179 151.085C132.914 151.085 132.697 151.041 132.529 150.952C132.362 150.863 132.231 150.759 132.137 150.639C132.042 150.52 131.969 150.414 131.918 150.321H131.867V152.636H131.017ZM131.85 148.818C131.85 149.125 131.894 149.394 131.983 149.625C132.072 149.856 132.201 150.037 132.37 150.168C132.538 150.296 132.745 150.361 132.989 150.361C133.243 150.361 133.455 150.294 133.625 150.159C133.796 150.023 133.925 149.838 134.012 149.605C134.101 149.372 134.145 149.11 134.145 148.818C134.145 148.53 134.102 148.272 134.014 148.043C133.929 147.813 133.8 147.633 133.628 147.5C133.458 147.367 133.245 147.301 132.989 147.301C132.743 147.301 132.534 147.365 132.364 147.491C132.195 147.618 132.068 147.795 131.98 148.023C131.893 148.25 131.85 148.515 131.85 148.818ZM135.955 151V146.636H136.776V147.33H136.821C136.901 147.095 137.041 146.91 137.242 146.776C137.444 146.639 137.674 146.571 137.929 146.571C137.982 146.571 138.045 146.573 138.117 146.577C138.191 146.58 138.248 146.585 138.29 146.591V147.403C138.256 147.394 138.195 147.384 138.108 147.372C138.021 147.359 137.934 147.352 137.847 147.352C137.646 147.352 137.467 147.395 137.31 147.48C137.155 147.563 137.032 147.68 136.941 147.83C136.85 147.977 136.804 148.146 136.804 148.335V151H135.955Z" fill="#556578"/>
<path d="M163.802 145.182H164.868L166.72 149.705H166.788L168.64 145.182H169.706V151H168.87V146.79H168.816L167.101 150.991H166.407L164.691 146.787H164.638V151H163.802V145.182ZM172.184 151.097C171.907 151.097 171.657 151.045 171.434 150.943C171.21 150.839 171.033 150.688 170.902 150.491C170.774 150.295 170.709 150.053 170.709 149.767C170.709 149.521 170.757 149.318 170.851 149.159C170.946 149 171.074 148.874 171.235 148.781C171.396 148.688 171.576 148.618 171.775 148.571C171.973 148.524 172.176 148.488 172.383 148.463C172.644 148.433 172.856 148.408 173.019 148.389C173.182 148.368 173.3 148.335 173.374 148.29C173.448 148.244 173.485 148.17 173.485 148.068V148.048C173.485 147.8 173.415 147.608 173.275 147.472C173.136 147.335 172.93 147.267 172.655 147.267C172.369 147.267 172.144 147.33 171.979 147.457C171.816 147.582 171.704 147.722 171.641 147.875L170.843 147.693C170.937 147.428 171.076 147.214 171.258 147.051C171.441 146.886 171.652 146.767 171.891 146.693C172.13 146.617 172.381 146.58 172.644 146.58C172.818 146.58 173.003 146.6 173.198 146.642C173.395 146.682 173.579 146.756 173.749 146.864C173.921 146.972 174.062 147.126 174.172 147.327C174.282 147.526 174.337 147.784 174.337 148.102V151H173.508V150.403H173.473C173.419 150.513 173.336 150.621 173.226 150.727C173.116 150.833 172.975 150.921 172.803 150.991C172.631 151.062 172.424 151.097 172.184 151.097ZM172.368 150.415C172.603 150.415 172.804 150.368 172.971 150.276C173.139 150.183 173.267 150.062 173.354 149.912C173.443 149.76 173.488 149.598 173.488 149.426V148.864C173.457 148.894 173.399 148.922 173.312 148.949C173.226 148.973 173.129 148.995 173.019 149.014C172.909 149.031 172.802 149.047 172.698 149.062C172.594 149.076 172.507 149.087 172.437 149.097C172.272 149.117 172.121 149.152 171.985 149.202C171.85 149.251 171.742 149.322 171.661 149.415C171.581 149.506 171.542 149.627 171.542 149.778C171.542 149.989 171.619 150.148 171.775 150.256C171.93 150.362 172.128 150.415 172.368 150.415ZM175.849 152.636C175.722 152.636 175.607 152.626 175.503 152.605C175.398 152.586 175.321 152.565 175.27 152.543L175.474 151.847C175.629 151.888 175.768 151.906 175.889 151.901C176.01 151.895 176.117 151.849 176.21 151.764C176.305 151.679 176.388 151.54 176.46 151.347L176.565 151.057L174.968 146.636H175.878L176.983 150.023H177.028L178.133 146.636H179.045L177.247 151.582C177.164 151.81 177.057 152.002 176.929 152.159C176.8 152.318 176.647 152.438 176.468 152.517C176.29 152.597 176.084 152.636 175.849 152.636Z" fill="#556578"/>
<path d="M206.038 145.182H206.913V149.307C206.913 149.68 206.839 149.999 206.692 150.264C206.546 150.529 206.34 150.732 206.075 150.872C205.81 151.01 205.499 151.08 205.143 151.08C204.816 151.08 204.521 151.02 204.26 150.901C204 150.781 203.795 150.608 203.643 150.381C203.494 150.152 203.419 149.873 203.419 149.545H204.291C204.291 149.706 204.328 149.846 204.402 149.963C204.478 150.08 204.581 150.172 204.712 150.239C204.844 150.303 204.996 150.335 205.166 150.335C205.352 150.335 205.509 150.296 205.638 150.219C205.768 150.139 205.868 150.023 205.936 149.869C206.004 149.716 206.038 149.528 206.038 149.307V145.182ZM210.887 149.19V146.636H211.739V151H210.904V150.244H210.859C210.758 150.477 210.597 150.671 210.376 150.827C210.156 150.98 209.882 151.057 209.555 151.057C209.274 151.057 209.026 150.995 208.81 150.872C208.596 150.747 208.428 150.562 208.305 150.318C208.183 150.074 208.123 149.772 208.123 149.412V146.636H208.972V149.31C208.972 149.607 209.055 149.844 209.219 150.02C209.384 150.196 209.598 150.284 209.861 150.284C210.021 150.284 210.179 150.244 210.336 150.165C210.495 150.085 210.627 149.965 210.731 149.804C210.837 149.643 210.889 149.438 210.887 149.19ZM213.73 148.409V151H212.881V146.636H213.696V147.347H213.75C213.85 147.116 214.007 146.93 214.222 146.79C214.437 146.65 214.709 146.58 215.037 146.58C215.334 146.58 215.595 146.642 215.818 146.767C216.042 146.89 216.215 147.074 216.338 147.318C216.461 147.562 216.523 147.865 216.523 148.224V151H215.673V148.327C215.673 148.01 215.591 147.763 215.426 147.585C215.261 147.405 215.035 147.315 214.747 147.315C214.55 147.315 214.375 147.358 214.222 147.443C214.07 147.528 213.95 147.653 213.861 147.818C213.774 147.981 213.73 148.178 213.73 148.409Z" fill="#556578"/>
<path d="M244.646 145.182H245.521V149.307C245.521 149.68 245.447 149.999 245.299 150.264C245.153 150.529 244.948 150.732 244.683 150.872C244.417 151.01 244.107 151.08 243.751 151.08C243.423 151.08 243.129 151.02 242.867 150.901C242.608 150.781 242.402 150.608 242.251 150.381C242.101 150.152 242.026 149.873 242.026 149.545H242.899C242.899 149.706 242.935 149.846 243.009 149.963C243.085 150.08 243.188 150.172 243.319 150.239C243.452 150.303 243.603 150.335 243.774 150.335C243.959 150.335 244.116 150.296 244.245 150.219C244.376 150.139 244.475 150.023 244.543 149.869C244.612 149.716 244.646 149.528 244.646 149.307V145.182ZM249.494 149.19V146.636H250.347V151H249.511V150.244H249.466C249.366 150.477 249.205 150.671 248.983 150.827C248.763 150.98 248.49 151.057 248.162 151.057C247.882 151.057 247.634 150.995 247.418 150.872C247.204 150.747 247.035 150.562 246.912 150.318C246.791 150.074 246.73 149.772 246.73 149.412V146.636H247.58V149.31C247.58 149.607 247.662 149.844 247.827 150.02C247.992 150.196 248.206 150.284 248.469 150.284C248.628 150.284 248.786 150.244 248.943 150.165C249.102 150.085 249.234 149.965 249.338 149.804C249.444 149.643 249.496 149.438 249.494 149.19ZM252.337 145.182V151H251.488V145.182H252.337Z" fill="#556578"/>
<path d="M278.561 151H277.63L279.723 145.182H280.737L282.831 151H281.899L280.255 146.239H280.209L278.561 151ZM278.718 148.722H281.74V149.46H278.718V148.722ZM286.367 149.19V146.636H287.22V151H286.384V150.244H286.339C286.239 150.477 286.078 150.671 285.856 150.827C285.636 150.98 285.363 151.057 285.035 151.057C284.755 151.057 284.507 150.995 284.291 150.872C284.077 150.747 283.908 150.562 283.785 150.318C283.664 150.074 283.603 149.772 283.603 149.412V146.636H284.453V149.31C284.453 149.607 284.535 149.844 284.7 150.02C284.865 150.196 285.079 150.284 285.342 150.284C285.501 150.284 285.659 150.244 285.816 150.165C285.975 150.085 286.107 149.965 286.211 149.804C286.317 149.643 286.369 149.438 286.367 149.19ZM290.191 152.727C289.844 152.727 289.546 152.682 289.296 152.591C289.048 152.5 288.845 152.38 288.688 152.23C288.531 152.08 288.413 151.917 288.335 151.739L289.066 151.438C289.117 151.521 289.185 151.609 289.27 151.702C289.357 151.796 289.475 151.877 289.622 151.943C289.772 152.009 289.964 152.043 290.199 152.043C290.521 152.043 290.787 151.964 290.997 151.807C291.208 151.652 291.313 151.403 291.313 151.062V150.205H291.259C291.208 150.297 291.134 150.401 291.037 150.514C290.943 150.628 290.812 150.726 290.645 150.81C290.478 150.893 290.262 150.935 289.995 150.935C289.65 150.935 289.339 150.854 289.063 150.693C288.788 150.53 288.57 150.291 288.409 149.974C288.25 149.656 288.171 149.265 288.171 148.801C288.171 148.337 288.249 147.939 288.407 147.608C288.566 147.277 288.783 147.023 289.06 146.847C289.336 146.669 289.65 146.58 290 146.58C290.271 146.58 290.49 146.625 290.657 146.716C290.823 146.805 290.953 146.909 291.046 147.028C291.14 147.148 291.213 147.253 291.264 147.344H291.327V146.636H292.159V151.097C292.159 151.472 292.072 151.779 291.898 152.02C291.724 152.26 291.488 152.438 291.191 152.554C290.895 152.67 290.562 152.727 290.191 152.727ZM290.182 150.23C290.426 150.23 290.633 150.173 290.801 150.06C290.972 149.944 291.101 149.779 291.188 149.565C291.277 149.349 291.321 149.091 291.321 148.79C291.321 148.496 291.278 148.238 291.191 148.014C291.103 147.791 290.976 147.616 290.807 147.491C290.639 147.365 290.43 147.301 290.182 147.301C289.926 147.301 289.713 147.367 289.543 147.5C289.372 147.631 289.244 147.809 289.157 148.034C289.071 148.259 289.029 148.511 289.029 148.79C289.029 149.076 289.072 149.327 289.159 149.543C289.246 149.759 289.375 149.927 289.546 150.048C289.718 150.17 289.93 150.23 290.182 150.23Z" fill="#556578"/>
<g clip-path="url(#clip1_651_673)">
<g clip-path="url(#clip2_651_673)">
<path d="M11 89H27V132H11V89Z" fill="#4893C1"/>
</g>
<g clip-path="url(#clip3_651_673)">
<path d="M49.1816 57H65.1816V132H49.1816V57Z" fill="#4893C1"/>
</g>
<g clip-path="url(#clip4_651_673)">
<path d="M87.5449 92H103.545V132H87.5449V92Z" fill="#4893C1"/>
</g>
<g clip-path="url(#clip5_651_673)">
<path d="M125.546 81H141.546V132H125.546V81Z" fill="#4893C1"/>
</g>
<g clip-path="url(#clip6_651_673)">
<path d="M164.091 57H180.091V132H164.091V57Z" fill="#4893C1"/>
</g>
<g clip-path="url(#clip7_651_673)">
<path d="M201.909 65H217.909V132H201.909V65Z" fill="#4893C1"/>
</g>
<g clip-path="url(#clip8_651_673)">
<path d="M240.091 89H256.091V132H240.091V89Z" fill="#4893C1"/>
</g>
<g clip-path="url(#clip9_651_673)">
<path d="M278.272 81H294.272V132H278.272V81Z" fill="#4893C1"/>
</g>
<rect y="89" width="562" height="46" fill="url(#paint1_linear_651_673)"/>
</g>
</g>
<defs>
<linearGradient id="paint0_linear_651_673" x1="1" y1="21" x2="104" y2="21" gradientUnits="userSpaceOnUse">
<stop stop-color="#304258"/>
<stop offset="1" stop-color="#142130"/>
</linearGradient>
<linearGradient id="paint1_linear_651_673" x1="281" y1="135" x2="281" y2="89" gradientUnits="userSpaceOnUse">
<stop stop-color="#142130"/>
<stop offset="1" stop-color="#142130" stop-opacity="0"/>
</linearGradient>
<clipPath id="clip0_651_673">
<rect width="309.333" height="180" fill="white" transform="translate(0.666992 0.828369)"/>
</clipPath>
<clipPath id="clip1_651_673">
<rect width="460" height="91" fill="white" transform="translate(-1 41)"/>
</clipPath>
<clipPath id="clip2_651_673">
<path d="M11 93C11 90.7909 12.7909 89 15 89H23C25.2091 89 27 90.7909 27 93V132H11V93Z" fill="white"/>
</clipPath>
<clipPath id="clip3_651_673">
<path d="M49.1816 61C49.1816 58.7909 50.9725 57 53.1816 57H61.1816C63.3908 57 65.1816 58.7909 65.1816 61V132H49.1816V61Z" fill="white"/>
</clipPath>
<clipPath id="clip4_651_673">
<path d="M87.5449 96C87.5449 93.7909 89.3358 92 91.5449 92H99.5449C101.754 92 103.545 93.7909 103.545 96V132H87.5449V96Z" fill="white"/>
</clipPath>
<clipPath id="clip5_651_673">
<path d="M125.546 85C125.546 82.7909 127.337 81 129.546 81H137.546C139.755 81 141.546 82.7909 141.546 85V132H125.546V85Z" fill="white"/>
</clipPath>
<clipPath id="clip6_651_673">
<path d="M164.091 61C164.091 58.7909 165.882 57 168.091 57H176.091C178.3 57 180.091 58.7909 180.091 61V132H164.091V61Z" fill="white"/>
</clipPath>
<clipPath id="clip7_651_673">
<path d="M201.909 69C201.909 66.7909 203.7 65 205.909 65H213.909C216.118 65 217.909 66.7909 217.909 69V132H201.909V69Z" fill="white"/>
</clipPath>
<clipPath id="clip8_651_673">
<path d="M240.091 93C240.091 90.7909 241.882 89 244.091 89H252.091C254.3 89 256.091 90.7909 256.091 93V132H240.091V93Z" fill="white"/>
</clipPath>
<clipPath id="clip9_651_673">
<path d="M278.272 85C278.272 82.7909 280.063 81 282.272 81H290.272C292.482 81 294.272 82.7909 294.272 85V132H278.272V85Z" fill="white"/>
</clipPath>
</defs>
</svg>
